<?xml version="1.0" encoding="UTF-8" standalone="no"?>
<!DOCTYPE svg PUBLIC "-//W3C//DTD SVG 1.1//EN" "http://www.w3.org/Graphics/SVG/1.1/DTD/svg11.dtd">
<svg width="100%" height="100%" viewBox="0 0 296 62" version="1.1" xmlns="http://www.w3.org/2000/svg" xmlns:xlink="http://www.w3.org/1999/xlink" xml:space="preserve" xmlns:serif="http://www.serif.com/" style="fill-rule:evenodd;clip-rule:evenodd;stroke-linejoin:round;stroke-miterlimit:2;">
    <g id="Artboard1" transform="matrix(0.80219,0,0,0.167161,-2120.92,-26.8009)">
        <rect x="2643.91" y="160.33" width="368.24" height="368.24" style="fill:none;"/>
        <g transform="matrix(0.492246,0,0,2.37107,2671.73,304.602)">
            <path d="M0,32.012L18.378,-19.762L18.775,-19.762L36.559,32.012L0,32.012ZM2.962,-54.545L-50.396,86.557L-19.171,86.557L-8.103,55.135L44.662,55.135L55.334,86.557L87.542,86.557L34.778,-54.545L2.962,-54.545Z" style="fill:rgb(246,249,252);fill-rule:nonzero;"/>
        </g>
        <g transform="matrix(0.492246,0,0,2.37107,2835.93,273.204)">
            <path d="M0,61.065C-0.924,65.014 -2.372,68.508 -4.348,71.538C-6.326,74.569 -8.792,76.972 -11.758,78.751C-14.724,80.53 -18.314,81.419 -22.529,81.419C-26.614,81.419 -30.172,80.53 -33.201,78.751C-36.232,76.972 -38.736,74.569 -40.71,71.538C-42.686,68.508 -44.138,65.017 -45.058,61.065C-45.98,57.111 -46.442,53.03 -46.442,48.811C-46.442,44.461 -45.98,40.312 -45.058,36.361C-44.138,32.409 -42.686,28.92 -40.71,25.886C-38.734,22.857 -36.232,20.451 -33.201,18.673C-30.172,16.894 -26.614,16.007 -22.529,16.007C-18.314,16.007 -14.724,16.894 -11.758,18.673C-8.792,20.454 -6.324,22.857 -4.348,25.886C-2.37,28.92 -0.922,32.409 0,36.361C0.92,40.312 1.382,44.463 1.382,48.811C1.382,53.03 0.92,57.111 0,61.065M15.907,7.709C11.888,3.361 7.375,0.133 2.37,-1.977C-2.637,-4.082 -7.706,-5.138 -12.845,-5.138C-19.171,-5.138 -25.265,-3.918 -31.126,-1.48C-36.988,0.958 -41.634,4.814 -45.058,10.08L-45.454,10.08L-45.454,-41.302L-73.517,-41.302L-73.517,99.797L-46.837,99.797L-46.837,86.753L-46.442,86.753C-43.411,92.422 -38.931,96.439 -33.002,98.809C-27.074,101.179 -20.356,102.367 -12.845,102.367C-7.708,102.367 -2.637,101.313 2.37,99.206C7.375,97.098 11.888,93.867 15.907,89.522C19.925,85.176 23.186,79.61 25.69,72.824C28.194,66.04 29.447,57.97 29.447,48.614C29.447,39.261 28.194,31.194 25.69,24.407C23.187,17.621 19.925,12.055 15.907,7.709" style="fill:rgb(246,249,252);fill-rule:nonzero;"/>
        </g>
        <g transform="matrix(0.492246,0,0,2.37107,1749.18,-4027.97)">
            <rect x="2247.85" y="1811.66" width="28.064" height="102.17" style="fill:rgb(246,249,252);"/>
        </g>
        <g transform="matrix(0.492246,0,0,2.37107,2791.38,463.209)">
            <path d="M0,-65.611C-1.849,-70.286 -4.418,-74.075 -7.708,-76.975C-11.005,-79.873 -14.956,-81.981 -19.565,-83.299C-24.178,-84.611 -29.184,-85.275 -34.585,-85.275C-41.698,-85.275 -47.86,-83.558 -53.062,-80.136C-58.269,-76.71 -62.385,-72.756 -65.414,-68.277C-68.183,-74.603 -72.235,-79.015 -77.569,-81.518C-82.903,-84.022 -88.802,-85.275 -95.255,-85.275C-101.973,-85.275 -107.938,-83.823 -113.14,-80.927C-118.347,-78.029 -122.791,-73.942 -126.48,-68.675L-126.877,-68.675L-126.877,-82.506L-153.357,-82.506L-153.357,19.664L-125.295,19.664L-125.295,-39.621C-125.295,-44.626 -124.572,-48.679 -123.12,-51.774C-121.67,-54.869 -119.928,-57.241 -117.882,-58.889C-115.841,-60.536 -113.734,-61.657 -111.559,-62.249C-109.383,-62.84 -107.64,-63.136 -106.321,-63.136C-101.846,-63.136 -98.451,-62.378 -96.144,-60.864C-93.84,-59.351 -92.193,-57.338 -91.202,-54.836C-90.212,-52.335 -89.656,-49.601 -89.522,-46.635C-89.393,-43.673 -89.325,-40.677 -89.325,-37.645L-89.325,19.662L-61.261,19.662L-61.261,-37.251C-61.261,-40.412 -61.033,-43.542 -60.571,-46.637C-60.111,-49.732 -59.187,-52.499 -57.804,-54.939C-56.42,-57.375 -54.512,-59.353 -52.072,-60.866C-49.638,-62.38 -46.442,-63.138 -42.489,-63.138C-38.535,-63.138 -35.409,-62.481 -33.102,-61.164C-30.798,-59.844 -29.05,-58.065 -27.863,-55.826C-26.678,-53.585 -25.955,-50.952 -25.69,-47.923C-25.429,-44.891 -25.295,-41.663 -25.295,-38.239L-25.295,19.664L2.767,19.664L2.767,-48.712C2.767,-55.301 1.842,-60.93 0,-65.611" style="fill:rgb(246,249,252);fill-rule:nonzero;"/>
        </g>
        <g transform="matrix(0.492246,0,0,2.37107,2971.92,482.423)">
            <path d="M0,-81.817C-2.767,-85.438 -6.556,-88.27 -11.364,-90.316C-16.177,-92.355 -22.332,-93.378 -29.843,-93.378C-35.771,-93.378 -41.569,-92.025 -47.233,-89.326C-52.896,-86.623 -57.507,-82.31 -61.064,-76.38L-61.657,-76.38L-61.657,-90.609L-88.335,-90.609L-88.335,11.559L-60.275,11.559L-60.275,-41.996C-60.275,-52.401 -58.562,-59.879 -55.136,-64.427C-51.713,-68.97 -46.177,-71.241 -38.537,-71.241C-31.819,-71.241 -27.142,-69.167 -24.505,-65.016C-21.872,-60.867 -20.553,-54.574 -20.553,-46.145L-20.553,11.561L7.511,11.561L7.511,-51.284C7.511,-57.608 6.948,-63.371 5.829,-68.578C4.707,-73.78 2.767,-78.192 0,-81.817" style="fill:rgb(246,249,252);fill-rule:nonzero;"/>
        </g>
        <g transform="matrix(0.492246,0,0,2.37107,2887.88,414.24)">
            <path d="M0,-21.737C0.129,-23.713 0.559,-25.951 1.284,-28.457C2.006,-30.957 3.26,-33.331 5.038,-35.572C6.817,-37.808 9.187,-39.688 12.153,-41.201C15.119,-42.715 18.838,-43.473 23.32,-43.473C30.167,-43.473 35.275,-41.631 38.636,-37.942C41.994,-34.253 44.331,-28.852 45.649,-21.737L0,-21.737ZM62.744,-46.047C58.593,-51.709 53.288,-56.226 46.834,-59.584C40.379,-62.942 32.804,-64.624 24.108,-64.624C16.334,-64.624 9.255,-63.24 2.865,-60.473C-3.527,-57.705 -9.027,-53.915 -13.636,-49.109C-18.249,-44.294 -21.806,-38.601 -24.308,-32.012C-26.814,-25.424 -28.062,-18.309 -28.062,-10.671C-28.062,-2.765 -26.844,4.481 -24.406,11.068C-21.97,17.659 -18.512,23.321 -14.032,28.064C-9.555,32.808 -4.085,36.462 2.37,39.034C8.823,41.601 16.072,42.887 24.108,42.887C35.7,42.887 45.582,40.254 53.752,34.983C61.92,29.715 67.979,20.951 71.933,8.698L47.231,8.698C46.309,11.861 43.803,14.857 39.722,17.69C35.637,20.522 30.761,21.937 25.096,21.937C17.191,21.937 11.13,19.895 6.915,15.81C2.696,11.729 0.394,5.14 0,-3.95L73.714,-3.95C74.237,-11.856 73.58,-19.43 71.736,-26.679C69.892,-33.923 66.895,-40.38 62.744,-46.047" style="fill:rgb(246,249,252);fill-rule:nonzero;"/>
        </g>
        <g transform="matrix(0.492246,0,0,2.37107,3009.86,395.032)">
            <path d="M0,-34.98L0.002,-53.753L-20.551,-53.753L-20.551,-84.384L-48.615,-84.384L-48.615,-53.753L-65.611,-53.753L-65.611,-34.98L-48.615,-34.98L-48.615,25.293C-48.615,30.432 -47.759,34.583 -46.046,37.746C-44.335,40.907 -41.994,43.347 -39.03,45.058C-36.066,46.768 -32.642,47.921 -28.754,48.514C-24.868,49.108 -20.75,49.404 -16.402,49.404C-13.635,49.404 -10.803,49.336 -7.905,49.207C-5.01,49.075 -2.372,48.812 0,48.416L0,26.677C-1.321,26.945 -2.703,27.14 -4.151,27.271C-5.603,27.405 -7.115,27.47 -8.696,27.47C-13.438,27.47 -16.602,26.68 -18.183,25.096C-19.765,23.517 -20.553,20.356 -20.553,15.611L-20.553,-34.98L0,-34.98Z" style="fill:rgb(246,249,252);fill-rule:nonzero;"/>
        </g>
        <g transform="matrix(0.492246,0,0,2.37107,1749.18,-4400.02)">
            <rect x="2247.85" y="1929.64" width="28.064" height="23.12" style="fill:rgb(246,249,252);"/>
        </g>
    </g>
</svg>
