<?xml version="1.0" encoding="utf-8"?>
<!-- Generator: Adobe Illustrator 26.0.2, SVG Export Plug-In . SVG Version: 6.00 Build 0)  -->
<svg version="1.1" id="Layer_1" xmlns="http://www.w3.org/2000/svg" xmlns:xlink="http://www.w3.org/1999/xlink" x="0px" y="0px"
	 viewBox="0 0 775.945 221.758" enable-background="new 0 0 775.945 221.758" xml:space="preserve">
<rect x="0.83" y="119.518" fill="#0B2540" width="74.013" height="86.84"/>
<g>
	<path fill="#F6FAFD" d="M32.931,183.696c-0.533,0-1.063-0.013-1.595-0.033c-1.448-0.061-3.073-0.227-5.111-0.522
		c-1.512-0.223-3.104-0.474-4.473-0.873c-2.14-0.624-4.338-1.396-6.587-2.203c-1.433-3.905-2.334-7.559-2.755-11.162
		c-0.183-1.562-0.312-3.308-0.415-4.711l-0.111-1.465l0.003-1.225l0.155-1.304c0.103-1.354,0.213-2.747,0.368-4.079
		c0.42-3.604,1.321-7.257,2.755-11.163c2.151-0.774,4.413-1.569,6.587-2.203c1.367-0.398,2.961-0.649,4.478-0.872
		c2.013-0.294,3.638-0.461,5.115-0.523c0.523-0.021,1.054-0.033,1.585-0.033h0.492c0.532,0,1.063,0.013,1.595,0.033
		c1.468,0.062,3.093,0.229,5.108,0.523c1.521,0.225,3.119,0.476,4.475,0.872c2.181,0.637,4.286,1.375,6.586,2.202
		c1.435,3.912,2.336,7.563,2.757,11.164c0.155,1.336,0.27,2.768,0.37,4.114l0.149,1.241v1.363l-0.104,1.346
		c-0.118,1.572-0.239,3.201-0.416,4.72c-0.419,3.595-1.321,7.247-2.757,11.162c-2.308,0.83-4.419,1.57-6.586,2.202
		c-1.36,0.398-2.958,0.649-4.479,0.873c-2.033,0.296-3.657,0.462-5.111,0.522c-0.525,0.021-1.057,0.033-1.589,0.033L32.931,183.696
		L32.931,183.696z"/>
	<path fill="#F6FAFD" d="M0,0v221.758h775.945V0H0z M65.05,169.231c-0.316,2.175-0.564,4.372-1.078,6.501
		c-0.66,2.733-1.492,5.429-2.368,8.103c-0.961,2.934-2.775,5.196-5.744,6.309c-2.462,0.923-4.934,1.846-7.458,2.569
		c-3.622,1.037-7.343,1.633-11.106,1.875c-1.375,0.088-2.749,0.132-4.12,0.131c-1.371,0.001-2.744-0.042-4.119-0.131
		c-3.763-0.241-7.484-0.837-11.106-1.875c-2.525-0.723-4.996-1.646-7.458-2.569c-2.969-1.113-4.783-3.375-5.744-6.309
		c-0.876-2.673-1.708-5.37-2.368-8.103c-0.514-2.13-0.762-4.327-1.078-6.501c-0.324-2.231-0.491-4.476-0.477-6.721
		c-0.014-2.245,0.153-4.49,0.477-6.721c0.316-2.175,0.564-4.372,1.078-6.501c0.66-2.733,1.492-5.429,2.368-8.103
		c0.961-2.935,2.775-5.196,5.744-6.309c2.462-0.923,4.934-1.846,7.458-2.569c3.622-1.037,7.343-1.633,11.106-1.875
		c1.375-0.088,2.749-0.132,4.119-0.131c1.371-0.001,2.744,0.042,4.12,0.131c3.763,0.241,7.484,0.837,11.106,1.875
		c2.525,0.723,4.996,1.646,7.458,2.569c2.969,1.113,4.783,3.375,5.744,6.309c0.876,2.673,1.708,5.37,2.368,8.103
		c0.514,2.13,0.762,4.327,1.078,6.501c0.324,2.231,0.491,4.476,0.477,6.721C65.541,164.755,65.374,167,65.05,169.231z
		 M127.705,195.45l-4.872-14.345H98.745l-5.053,14.345H79.437l24.359-64.416h14.525l24.088,64.416H127.705z M214.675,195.45h-12.812
		v-26.434c0-1.563-0.061-3.037-0.18-4.421c-0.121-1.383-0.451-2.585-0.992-3.608c-0.542-1.022-1.34-1.834-2.392-2.437
		c-1.053-0.601-2.48-0.901-4.285-0.901s-3.264,0.346-4.375,1.037c-1.114,0.691-1.985,1.594-2.617,2.706
		c-0.631,1.114-1.053,2.377-1.263,3.79c-0.211,1.413-0.315,2.842-0.315,4.285v25.982h-12.812v-26.162
		c0-1.384-0.031-2.752-0.09-4.104c-0.061-1.354-0.315-2.602-0.767-3.744s-1.204-2.061-2.256-2.752
		c-1.053-0.691-2.603-1.037-4.646-1.037c-0.602,0-1.398,0.135-2.391,0.405c-0.993,0.27-1.955,0.782-2.887,1.534
		c-0.934,0.752-1.729,1.835-2.391,3.248c-0.663,1.413-0.993,3.263-0.993,5.548v27.065H143.4v-46.643h12.089v6.314h0.181
		c1.684-2.404,3.713-4.27,6.09-5.593c2.375-1.322,5.098-1.985,8.165-1.985c2.946,0,5.639,0.572,8.074,1.715s4.285,3.157,5.549,6.045
		c1.383-2.045,3.262-3.85,5.639-5.414c2.375-1.562,5.188-2.346,8.435-2.346c2.466,0,4.751,0.303,6.857,0.902
		c2.104,0.602,3.908,1.564,5.413,2.887c1.502,1.324,2.675,3.054,3.519,5.188c0.841,2.137,1.263,4.707,1.263,7.715v31.215
		L214.675,195.45L214.675,195.45z M266.459,183.135c-1.143,3.098-2.632,5.639-4.466,7.623c-1.835,1.984-3.895,3.459-6.18,4.421
		c-2.286,0.962-4.601,1.443-6.946,1.443c-3.429,0-6.496-0.542-9.202-1.624c-2.707-1.082-4.752-2.916-6.136-5.504h-0.18v5.955h-12.18
		v-64.415h12.811v23.457h0.181c1.563-2.404,3.684-4.164,6.36-5.277c2.676-1.113,5.458-1.67,8.346-1.67
		c2.346,0,4.66,0.482,6.946,1.443c2.285,0.963,4.345,2.437,6.18,4.422c1.834,1.984,3.323,4.525,4.466,7.623
		s1.715,6.781,1.715,11.051C268.174,176.354,267.602,180.038,266.459,183.135z M285.856,195.45h-12.812v-46.643h12.812V195.45z
		 M285.856,141.589h-12.812v-10.555h12.812V141.589z M336.559,175.241h-33.652c0.18,4.15,1.231,7.158,3.157,9.021
		c1.924,1.865,4.691,2.797,8.3,2.797c2.586,0,4.812-0.646,6.677-1.939c1.863-1.293,3.007-2.661,3.428-4.105h11.277
		c-1.805,5.594-4.571,9.595-8.3,12c-3.73,2.406-8.241,3.608-13.533,3.608c-3.669,0-6.978-0.587-9.924-1.759
		c-2.947-1.174-5.444-2.842-7.488-5.008c-2.045-2.165-3.624-4.75-4.736-7.759c-1.113-3.007-1.669-6.315-1.669-9.924
		c0-3.487,0.57-6.735,1.714-9.743c1.142-3.008,2.766-5.607,4.872-7.805c2.104-2.194,4.615-3.924,7.533-5.188
		c2.917-1.263,6.149-1.895,9.698-1.895c3.97,0,7.428,0.768,10.375,2.301c2.946,1.533,5.368,3.595,7.263,6.18
		c1.895,2.587,3.263,5.535,4.105,8.842C336.498,168.174,336.798,171.632,336.559,175.241z M384.283,195.45h-12.812v-26.344
		c0-3.848-0.602-6.721-1.804-8.615c-1.204-1.895-3.339-2.842-6.406-2.842c-3.488,0-6.015,1.037-7.578,3.111
		c-1.564,2.076-2.346,5.49-2.346,10.24v24.449h-12.81v-46.642h12.179v6.496h0.271c1.624-2.707,3.729-4.676,6.314-5.91
		c2.586-1.232,5.233-1.85,7.939-1.85c3.429,0,6.239,0.467,8.436,1.398c2.195,0.934,3.925,2.227,5.188,3.88
		c1.263,1.655,2.149,3.669,2.661,6.044c0.511,2.377,0.768,5.008,0.768,7.895L384.283,195.45L384.283,195.45z M416.039,157.377
		h-9.383v23.096c0,2.166,0.36,3.609,1.082,4.33c0.722,0.723,2.166,1.084,4.331,1.084c0.722,0,1.412-0.03,2.075-0.091
		c0.661-0.06,1.292-0.149,1.895-0.271v9.924c-1.083,0.181-2.287,0.301-3.609,0.361c-1.323,0.059-2.616,0.09-3.879,0.09
		c-1.985,0-3.865-0.135-5.639-0.406c-1.775-0.271-3.338-0.797-4.691-1.578s-2.422-1.895-3.203-3.338
		c-0.782-1.444-1.173-3.339-1.173-5.685v-27.516h-7.759v-8.57h7.759v-13.984h12.812v13.984h9.383L416.039,157.377L416.039,157.377z"
		/>
</g>
<g>
	<path fill="#F6FAFD" d="M313.553,157.198c-2.046,0-3.744,0.346-5.098,1.037s-2.436,1.549-3.248,2.57
		c-0.812,1.023-1.384,2.107-1.714,3.248c-0.331,1.144-0.527,2.166-0.586,3.068h20.84c-0.602-3.248-1.669-5.714-3.202-7.398
		C319.011,158.039,316.679,157.198,313.553,157.198z"/>
	<path fill="#F6FAFD" d="M252.746,161.707c-0.902-1.383-2.029-2.48-3.383-3.293c-1.354-0.812-2.993-1.217-4.917-1.217
		c-1.865,0-3.489,0.405-4.872,1.217c-1.384,0.812-2.526,1.91-3.428,3.293c-0.902,1.385-1.565,2.978-1.985,4.782
		c-0.421,1.804-0.632,3.698-0.632,5.684c0,1.926,0.211,3.789,0.632,5.594c0.42,1.804,1.083,3.398,1.985,4.781
		c0.901,1.384,2.044,2.481,3.428,3.293c1.383,0.812,3.007,1.218,4.872,1.218c1.924,0,3.563-0.406,4.917-1.218
		s2.48-1.909,3.383-3.293c0.902-1.383,1.563-2.978,1.985-4.781c0.42-1.805,0.631-3.668,0.631-5.594c0-1.985-0.211-3.88-0.631-5.684
		C254.31,164.685,253.649,163.092,252.746,161.707z"/>
	<polygon fill="#F6FAFD" points="110.834,146.913 102.444,170.549 119.134,170.549 111.015,146.913 	"/>
</g>
</svg>
