<?xml version="1.0" encoding="utf-8"?>
<!-- Generator: Adobe Illustrator 26.0.2, SVG Export Plug-In . SVG Version: 6.00 Build 0)  -->
<svg version="1.1" id="Layer_1" xmlns="http://www.w3.org/2000/svg" xmlns:xlink="http://www.w3.org/1999/xlink" x="0px" y="0px"
	 viewBox="0 0 776.4 221.8" style="enable-background:new 0 0 776.4 221.8;" xml:space="preserve">
<style type="text/css">
	.st0{fill:#F6F9FC;}
	.st1{fill:#0249E5;}
</style>
<g>
	<path class="st0" d="M0,0v221.8h776.4V0H0z M120.6,195.4l-4.9-14.3h-24l-5.1,14.3H72.4L96.7,131h14.5l24.1,64.4H120.6z
		 M207.6,195.4h-12.8V169c0-1.6-0.1-3-0.2-4.4c-0.1-1.4-0.5-2.6-1-3.6s-1.3-1.8-2.4-2.4c-1.1-0.6-2.5-0.9-4.3-0.9s-3.3,0.3-4.4,1
		c-1.1,0.7-2,1.6-2.6,2.7c-0.6,1.1-1.1,2.4-1.3,3.8c-0.2,1.4-0.3,2.8-0.3,4.3v26h-12.8v-26.2c0-1.4,0-2.8-0.1-4.1
		c-0.1-1.4-0.3-2.6-0.8-3.7s-1.2-2.1-2.3-2.8s-2.6-1-4.6-1c-0.6,0-1.4,0.1-2.4,0.4c-1,0.3-2,0.8-2.9,1.5c-0.9,0.8-1.7,1.8-2.4,3.2
		s-1,3.3-1,5.5v27.1h-12.8v-46.6h12.1v6.3h0.2c1.7-2.4,3.7-4.3,6.1-5.6c2.4-1.3,5.1-2,8.2-2c2.9,0,5.6,0.6,8.1,1.7s4.3,3.2,5.5,6
		c1.4-2,3.3-3.9,5.6-5.4c2.4-1.6,5.2-2.3,8.4-2.3c2.5,0,4.8,0.3,6.9,0.9c2.1,0.6,3.9,1.6,5.4,2.9c1.5,1.3,2.7,3.1,3.5,5.2
		c0.8,2.1,1.3,4.7,1.3,7.7L207.6,195.4L207.6,195.4L207.6,195.4z M259.4,183.1c-1.1,3.1-2.6,5.6-4.5,7.6c-1.8,2-3.9,3.5-6.2,4.4
		c-2.3,1-4.6,1.4-6.9,1.4c-3.4,0-6.5-0.5-9.2-1.6s-4.8-2.9-6.1-5.5h-0.2v6h-12.2V131h12.8v23.5h0.2c1.6-2.4,3.7-4.2,6.4-5.3
		s5.5-1.7,8.3-1.7c2.3,0,4.7,0.5,6.9,1.4c2.3,1,4.3,2.4,6.2,4.4c1.8,2,3.3,4.5,4.5,7.6s1.7,6.8,1.7,11.1
		C261.1,176.4,260.5,180,259.4,183.1z M278.8,195.4H266v-46.6h12.8V195.4z M278.8,141.6H266V131h12.8V141.6z M329.5,175.2h-33.7
		c0.2,4.1,1.2,7.2,3.2,9c1.9,1.9,4.7,2.8,8.3,2.8c2.6,0,4.8-0.6,6.7-1.9c1.9-1.3,3-2.7,3.4-4.1h11.3c-1.8,5.6-4.6,9.6-8.3,12
		c-3.7,2.4-8.2,3.6-13.5,3.6c-3.7,0-7-0.6-9.9-1.8s-5.4-2.8-7.5-5c-2-2.2-3.6-4.8-4.7-7.8s-1.7-6.3-1.7-9.9c0-3.5,0.6-6.7,1.7-9.7
		s2.8-5.6,4.9-7.8s4.6-3.9,7.5-5.2s6.1-1.9,9.7-1.9c4,0,7.4,0.8,10.4,2.3c2.9,1.5,5.4,3.6,7.3,6.2c1.9,2.6,3.3,5.5,4.1,8.8
		C329.4,168.2,329.7,171.6,329.5,175.2z M377.2,195.4h-12.8v-26.3c0-3.8-0.6-6.7-1.8-8.6c-1.2-1.9-3.3-2.8-6.4-2.8
		c-3.5,0-6,1-7.6,3.1s-2.3,5.5-2.3,10.2v24.4h-12.8v-46.6h12.2v6.5h0.3c1.6-2.7,3.7-4.7,6.3-5.9c2.6-1.2,5.2-1.9,7.9-1.9
		c3.4,0,6.2,0.5,8.4,1.4c2.2,0.9,3.9,2.2,5.2,3.9c1.3,1.7,2.1,3.7,2.7,6c0.5,2.4,0.8,5,0.8,7.9v28.7H377.2z M409,157.4h-9.4v23.1
		c0,2.2,0.4,3.6,1.1,4.3s2.2,1.1,4.3,1.1c0.7,0,1.4,0,2.1-0.1s1.3-0.1,1.9-0.3v9.9c-1.1,0.2-2.3,0.3-3.6,0.4
		c-1.3,0.1-2.6,0.1-3.9,0.1c-2,0-3.9-0.1-5.6-0.4c-1.8-0.3-3.3-0.8-4.7-1.6s-2.4-1.9-3.2-3.3c-0.8-1.4-1.2-3.3-1.2-5.7v-27.5H379
		v-8.6h7.8v-14h12.8v14h9.4L409,157.4L409,157.4z"/>
</g>
<g>
	<path class="st0" d="M306.5,157.2c-2,0-3.7,0.3-5.1,1s-2.4,1.5-3.2,2.6c-0.8,1-1.4,2.1-1.7,3.2c-0.3,1.1-0.5,2.2-0.6,3.1h20.8
		c-0.6-3.2-1.7-5.7-3.2-7.4C311.9,158,309.6,157.2,306.5,157.2z"/>
	<path class="st0" d="M245.7,161.7c-0.9-1.4-2-2.5-3.4-3.3s-3-1.2-4.9-1.2s-3.5,0.4-4.9,1.2s-2.5,1.9-3.4,3.3c-0.9,1.4-1.6,3-2,4.8
		s-0.6,3.7-0.6,5.7c0,1.9,0.2,3.8,0.6,5.6c0.4,1.8,1.1,3.4,2,4.8c0.9,1.4,2,2.5,3.4,3.3s3,1.2,4.9,1.2s3.6-0.4,4.9-1.2
		s2.5-1.9,3.4-3.3c0.9-1.4,1.6-3,2-4.8s0.6-3.7,0.6-5.6c0-2-0.2-3.9-0.6-5.7C247.2,164.7,246.6,163.1,245.7,161.7z"/>
	<polygon class="st0" points="103.8,146.9 95.4,170.5 112.1,170.5 103.9,146.9 	"/>
</g>
<path class="st1" d="M64.8,157.4c-0.1-0.8-0.2-1.6-0.3-2.4c-0.2-1-0.4-2.1-0.6-3.1c-0.2-0.7-0.3-1.5-0.6-2.3
	c-0.2-0.7-0.4-1.4-0.6-2.1v-0.1c-0.2-0.8-0.5-1.5-0.8-2.3s-0.6-1.6-1-2.3l-0.1-0.2c-0.4-0.9-1.1-2.4-2.3-3.7c-1.9-2.1-4-3-5.2-3.4
	c-0.1-0.1-0.3-0.1-0.4-0.2c-0.8-0.3-1.5-0.6-2.1-0.8l-0.7-0.2c-0.7-0.3-1.4-0.5-2.2-0.7c-1-0.3-2-0.6-3.1-0.8
	c-1.3-0.3-2.6-0.6-4-0.8s-2.8-0.4-4.1-0.5c-1.5-0.1-2.8-0.1-3.9-0.1c-1.7,0-3.2,0.1-4.7,0.3l-0.8,0.1c-0.5,0.1-1,0.1-1.4,0.2
	c-0.7,0.1-1.4,0.2-2,0.3s-1.1,0.2-1.7,0.3c-0.8,0.2-1.6,0.4-2.4,0.6c-0.7,0.2-1.4,0.4-2.1,0.6c-0.6,0.2-1.2,0.4-1.8,0.6
	c-0.7,0.3-1.5,0.5-2.2,0.8c-0.4,0.2-0.8,0.3-1.2,0.5c-0.2,0.1-0.3,0.2-0.5,0.2c-2.7,1.2-4.8,3.2-6,5.8c-0.6,1.2-1,2.4-1.3,3.2
	c-0.4,1.1-0.9,2.4-1.3,3.8c-0.4,1.3-0.7,2.6-1,3.9c-0.3,1.3-0.6,2.8-0.7,4.4c-0.2,1.5-0.2,3-0.3,4.1l-0.1,1.5l0.1,1.8
	c0,1,0.1,1.9,0.1,2.8c0.1,1.2,0.2,2.3,0.4,3.4c0.1,1,0.3,2.1,0.5,3.2c0.2,0.8,0.4,1.7,0.6,2.6c0.3,0.9,0.5,1.9,0.8,2.8
	c0.3,1,0.6,2,1,3c0.5,1.2,0.9,2.2,1.4,3.3c1.3,2.6,3.4,4.6,6.1,5.8c0.6,0.3,1.3,0.5,1.9,0.8c0.7,0.3,1.5,0.6,2.2,0.8
	c0.5,0.2,1,0.3,1.5,0.5l0.6,0.2c0.6,0.2,1.2,0.4,1.8,0.5c0.9,0.2,1.7,0.4,2.6,0.6l0.4,0.1c0.8,0.2,1.8,0.4,2.9,0.5
	c0.8,0.1,1.6,0.2,2.4,0.2c0.3,0,0.7,0.1,1,0.1c1.1,0.1,2.3,0.2,3.6,0.2c1.9,0,3.9-0.1,6.1-0.4c1.1-0.1,2.3-0.3,3.5-0.5
	c0.8-0.1,1.7-0.3,2.7-0.6c0.9-0.2,1.9-0.5,2.8-0.8l0.2-0.1c0.7-0.2,1.6-0.5,2.5-0.8c1.1-0.5,2.3-1,3.5-1.5c2.7-1.3,4.8-3.5,6-6.5
	l0.2-0.6c0.2-0.4,0.3-0.8,0.5-1.3c0.3-0.7,0.5-1.4,0.8-2.2c0.2-0.5,0.3-1,0.5-1.6l0.2-0.6c0.2-0.6,0.4-1.2,0.5-1.8
	c0.2-0.8,0.4-1.6,0.6-2.5l0.1-0.3c0.2-0.8,0.4-1.8,0.5-2.8c0.1-0.8,0.2-1.5,0.3-2.3l0.1-0.7C65.2,164.6,65.2,161.3,64.8,157.4z
	 M56.8,166.9c-0.1,0.9-0.2,1.7-0.3,2.6c-0.1,0.9-0.3,1.8-0.5,2.7c-0.1,0.7-0.3,1.4-0.5,2.1c-0.2,0.6-0.3,1.2-0.5,1.8
	c-0.2,0.5-0.3,1-0.5,1.5c-0.2,0.6-0.5,1.3-0.7,1.9c-0.2,0.6-0.5,1.1-0.7,1.7c-0.4,1-1,1.7-1.9,2.2c-1,0.5-2,0.9-3.1,1.3
	c-0.7,0.3-1.4,0.5-2.1,0.7c-0.8,0.3-1.7,0.5-2.5,0.7c-0.7,0.2-1.3,0.3-2,0.4c-1.1,0.2-2.1,0.3-3.2,0.5c-2.6,0.3-5.3,0.5-7.9,0.2
	c-1-0.1-2.1-0.2-3.1-0.3c-0.9-0.1-1.8-0.3-2.8-0.5c-0.7-0.1-1.5-0.3-2.2-0.5c-0.6-0.1-1.2-0.3-1.7-0.5c-0.5-0.1-1-0.3-1.5-0.5
	c-0.7-0.2-1.3-0.5-2-0.7c-0.6-0.2-1.1-0.4-1.7-0.7c-0.9-0.4-1.5-1-1.9-1.8c-0.4-0.9-0.8-1.8-1.2-2.7c-0.3-0.8-0.6-1.7-0.9-2.5
	c-0.3-0.8-0.5-1.6-0.7-2.4c-0.2-0.6-0.3-1.3-0.4-1.9c-0.2-0.9-0.3-1.9-0.5-2.9c-0.1-0.9-0.3-1.9-0.3-2.8c-0.1-1.1-0.1-2.2-0.1-3.9
	c0.1-1.3,0.2-3.1,0.4-5c0.1-1.2,0.4-2.4,0.6-3.6c0.2-1.1,0.5-2.1,0.8-3.2c0.3-1.1,0.7-2.2,1.1-3.3c0.3-0.9,0.7-1.8,1.1-2.6
	c0.4-0.8,1-1.3,1.8-1.7c0.5-0.2,1-0.5,1.6-0.7c0.6-0.3,1.3-0.5,1.9-0.7c0.5-0.2,1-0.3,1.4-0.5c0.6-0.2,1.2-0.4,1.8-0.5
	c0.7-0.2,1.4-0.3,2.2-0.5c0.4-0.1,0.8-0.2,1.2-0.2c0.6-0.1,1.1-0.2,1.7-0.3c0.7-0.1,1.4-0.2,2.1-0.2c2.4-0.3,4.8-0.2,7.2-0.1
	c1.1,0.1,2.2,0.2,3.2,0.4c1.2,0.2,2.3,0.5,3.5,0.7c0.9,0.2,1.7,0.4,2.6,0.7c0.7,0.2,1.4,0.5,2.1,0.7c0.6,0.2,1.2,0.4,1.8,0.7
	c1,0.4,2,0.7,2.8,1.6c0.4,0.5,0.7,1,0.9,1.5c0.3,0.7,0.6,1.5,0.9,2.2c0.2,0.7,0.5,1.3,0.7,2c0.2,0.6,0.4,1.2,0.5,1.7
	c0.2,0.6,0.3,1.3,0.5,1.9c0.2,0.9,0.4,1.9,0.5,2.8c0.1,0.6,0.2,1.2,0.2,1.8C57,161.1,57.1,164,56.8,166.9z"/>
</svg>
