<?xml version="1.0" encoding="utf-8"?>
<!-- Generator: Adobe Illustrator 26.0.2, SVG Export Plug-In . SVG Version: 6.00 Build 0)  -->
<svg version="1.1" id="Layer_1" xmlns="http://www.w3.org/2000/svg" xmlns:xlink="http://www.w3.org/1999/xlink" x="0px" y="0px"
	 viewBox="0 0 776.4 221.8" style="enable-background:new 0 0 776.4 221.8;" xml:space="preserve">
<style type="text/css">
	.st0{fill:#F6F9FC;}
	.st1{fill:#0249E5;}
</style>
<g>
	<path class="st0" d="M0,0v221.8h776.4V0H0z M120.6,195.4l-4.9-14.3h-24l-5.1,14.3H72.4L96.7,131h14.5l24.1,64.4H120.6z
		 M207.6,195.4h-12.8V169c0-1.6-0.1-3-0.2-4.4c-0.1-1.4-0.5-2.6-1-3.6s-1.3-1.8-2.4-2.4c-1.1-0.6-2.5-0.9-4.3-0.9s-3.3,0.3-4.4,1
		c-1.1,0.7-2,1.6-2.6,2.7c-0.6,1.1-1.1,2.4-1.3,3.8c-0.2,1.4-0.3,2.8-0.3,4.3v26h-12.8v-26.2c0-1.4,0-2.8-0.1-4.1
		c-0.1-1.4-0.3-2.6-0.8-3.7s-1.2-2.1-2.3-2.8s-2.6-1-4.6-1c-0.6,0-1.4,0.1-2.4,0.4c-1,0.3-2,0.8-2.9,1.5c-0.9,0.8-1.7,1.8-2.4,3.2
		s-1,3.3-1,5.5v27.1h-12.8v-46.6h12.1v6.3h0.2c1.7-2.4,3.7-4.3,6.1-5.6c2.4-1.3,5.1-2,8.2-2c2.9,0,5.6,0.6,8.1,1.7s4.3,3.2,5.5,6
		c1.4-2,3.3-3.9,5.6-5.4c2.4-1.6,5.2-2.3,8.4-2.3c2.5,0,4.8,0.3,6.9,0.9c2.1,0.6,3.9,1.6,5.4,2.9c1.5,1.3,2.7,3.1,3.5,5.2
		c0.8,2.1,1.3,4.7,1.3,7.7L207.6,195.4L207.6,195.4L207.6,195.4z M259.4,183.1c-1.1,3.1-2.6,5.6-4.5,7.6c-1.8,2-3.9,3.5-6.2,4.4
		c-2.3,1-4.6,1.4-6.9,1.4c-3.4,0-6.5-0.5-9.2-1.6s-4.8-2.9-6.1-5.5h-0.2v6h-12.2V131h12.8v23.5h0.2c1.6-2.4,3.7-4.2,6.4-5.3
		s5.5-1.7,8.3-1.7c2.3,0,4.7,0.5,6.9,1.4c2.3,1,4.3,2.4,6.2,4.4c1.8,2,3.3,4.5,4.5,7.6s1.7,6.8,1.7,11.1
		C261.1,176.4,260.5,180,259.4,183.1z M278.8,195.4H266v-46.6h12.8V195.4z M278.8,141.6H266V131h12.8V141.6z M329.5,175.2h-33.7
		c0.2,4.1,1.2,7.2,3.2,9c1.9,1.9,4.7,2.8,8.3,2.8c2.6,0,4.8-0.6,6.7-1.9c1.9-1.3,3-2.7,3.4-4.1h11.3c-1.8,5.6-4.6,9.6-8.3,12
		c-3.7,2.4-8.2,3.6-13.5,3.6c-3.7,0-7-0.6-9.9-1.8s-5.4-2.8-7.5-5c-2-2.2-3.6-4.8-4.7-7.8s-1.7-6.3-1.7-9.9c0-3.5,0.6-6.7,1.7-9.7
		s2.8-5.6,4.9-7.8s4.6-3.9,7.5-5.2s6.1-1.9,9.7-1.9c4,0,7.4,0.8,10.4,2.3c2.9,1.5,5.4,3.6,7.3,6.2c1.9,2.6,3.3,5.5,4.1,8.8
		C329.4,168.2,329.7,171.6,329.5,175.2z M377.2,195.4h-12.8v-26.3c0-3.8-0.6-6.7-1.8-8.6c-1.2-1.9-3.3-2.8-6.4-2.8
		c-3.5,0-6,1-7.6,3.1s-2.3,5.5-2.3,10.2v24.4h-12.8v-46.6h12.2v6.5h0.3c1.6-2.7,3.7-4.7,6.3-5.9c2.6-1.2,5.2-1.9,7.9-1.9
		c3.4,0,6.2,0.5,8.4,1.4c2.2,0.9,3.9,2.2,5.2,3.9c1.3,1.7,2.1,3.7,2.7,6c0.5,2.4,0.8,5,0.8,7.9v28.7H377.2z M409,157.4h-9.4v23.1
		c0,2.2,0.4,3.6,1.1,4.3s2.2,1.1,4.3,1.1c0.7,0,1.4,0,2.1-0.1s1.3-0.1,1.9-0.3v9.9c-1.1,0.2-2.3,0.3-3.6,0.4
		c-1.3,0.1-2.6,0.1-3.9,0.1c-2,0-3.9-0.1-5.6-0.4c-1.8-0.3-3.3-0.8-4.7-1.6s-2.4-1.9-3.2-3.3c-0.8-1.4-1.2-3.3-1.2-5.7v-27.5H379
		v-8.6h7.8v-14h12.8v14h9.4L409,157.4L409,157.4z"/>
</g>
<g>
	<path class="st0" d="M306.5,157.2c-2,0-3.7,0.3-5.1,1s-2.4,1.5-3.2,2.6c-0.8,1-1.4,2.1-1.7,3.2c-0.3,1.1-0.5,2.2-0.6,3.1h20.8
		c-0.6-3.2-1.7-5.7-3.2-7.4C311.9,158,309.6,157.2,306.5,157.2z"/>
	<path class="st0" d="M245.7,161.7c-0.9-1.4-2-2.5-3.4-3.3s-3-1.2-4.9-1.2s-3.5,0.4-4.9,1.2s-2.5,1.9-3.4,3.3c-0.9,1.4-1.6,3-2,4.8
		s-0.6,3.7-0.6,5.7c0,1.9,0.2,3.8,0.6,5.6c0.4,1.8,1.1,3.4,2,4.8c0.9,1.4,2,2.5,3.4,3.3s3,1.2,4.9,1.2s3.6-0.4,4.9-1.2
		s2.5-1.9,3.4-3.3c0.9-1.4,1.6-3,2-4.8s0.6-3.7,0.6-5.6c0-2-0.2-3.9-0.6-5.7C247.2,164.7,246.6,163.1,245.7,161.7z"/>
	<polygon class="st0" points="103.8,146.9 95.4,170.5 112.1,170.5 103.9,146.9 	"/>
</g>
<path class="st1" d="M64.8,157.4C64.7,156.6 64.6,155.8 64.5,155C64.3,154 64.1,152.9 63.9,151.9C63.7,151.2 63.6,150.4 63.3,149.6C63.1,148.9 62.9,148.2 62.7,147.5L62.7,147.4C62.5,146.6 62.2,145.9 61.9,145.1C61.6,144.3 61.3,143.5 60.9,142.8L60.8,142.6C60.4,141.7 59.7,140.2 58.5,138.9C56.6,136.8 54.5,135.9 53.3,135.5C53.2,135.4 53,135.4 52.9,135.3C52.1,135 51.4,134.7 50.8,134.5L50.1,134.3C49.4,134 48.7,133.8 47.9,133.6C46.9,133.3 45.9,133 44.8,132.8C43.5,132.5 42.2,132.2 40.8,132C39.4,131.8 38,131.6 36.7,131.5C35.2,131.4 33.9,131.4 32.8,131.4C31.1,131.4 29.6,131.5 28.1,131.7L27.3,131.8C26.8,131.9 26.3,131.9 25.9,132C25.2,132.1 24.5,132.2 23.9,132.3C23.3,132.4 22.8,132.5 22.2,132.6C21.4,132.8 20.6,133 19.8,133.2C19.1,133.4 18.4,133.6 17.7,133.8C17.1,134 16.5,134.2 15.9,134.4C15.2,134.7 14.4,134.9 13.7,135.2C13.3,135.4 12.9,135.5 12.5,135.7C12.3,135.8 12.2,135.9 12,135.9C9.3,137.1 7.2,139.1 6,141.7C5.4,142.9 5,144.1 4.7,144.9C4.3,146 3.8,147.3 3.4,148.7C3,150 2.7,151.3 2.4,152.6C2.1,153.9 1.8,155.4 1.7,157C1.5,158.5 1.5,160 1.4,161.1L1.3,162.6L1.4,164.4C1.4,165.4 1.5,166.3 1.5,167.2C1.6,168.4 1.7,169.5 1.9,170.6C2,171.6 2.2,172.7 2.4,173.8C2.6,174.6 2.8,175.5 3,176.4C3.3,177.3 3.5,178.3 3.8,179.2C4.1,180.2 4.4,181.2 4.8,182.2C5.3,183.4 5.7,184.4 6.2,185.5C7.5,188.1 9.6,190.1 12.3,191.3C12.9,191.6 13.6,191.8 14.2,192.1C14.9,192.4 15.7,192.7 16.4,192.9C16.9,193.1 17.4,193.2 17.9,193.4L18.5,193.6C19.1,193.8 19.7,194 20.3,194.1C21.2,194.3 22,194.5 22.9,194.7L23.3,194.8C24.1,195 25.1,195.2 26.2,195.3C27,195.4 27.8,195.5 28.6,195.5C28.9,195.5 29.3,195.6 29.6,195.6C30.7,195.7 31.9,195.8 33.2,195.8C35.1,195.8 37.1,195.7 39.3,195.4C40.4,195.3 41.6,195.1 42.8,194.9C43.6,194.8 44.5,194.6 45.5,194.3C46.4,194.1 47.4,193.8 48.3,193.5L48.5,193.4C49.2,193.2 50.1,192.9 51,192.6C52.1,192.1 53.3,191.6 54.5,191.1C57.2,189.8 59.3,187.6 60.5,184.6L60.7,184C60.9,183.6 61,183.2 61.2,182.7C61.5,182 61.7,181.3 62,180.5C62.2,180 62.3,179.5 62.5,178.9L62.7,178.3C62.9,177.7 63.1,177.1 63.2,176.5C63.4,175.7 63.6,174.9 63.8,174L63.9,173.7C64.1,172.9 64.3,171.9 64.4,170.9C64.5,170.1 64.6,169.4 64.7,168.6L64.8,167.9C65.2,164.6 65.2,161.3 64.8,157.4Z"/>
</svg>
