<?xml version="1.0" encoding="UTF-8" standalone="no"?>
<!DOCTYPE svg PUBLIC "-//W3C//DTD SVG 1.1//EN" "http://www.w3.org/Graphics/SVG/1.1/DTD/svg11.dtd">
<svg width="100%" height="100%" viewBox="0 0 93 93" version="1.1" xmlns="http://www.w3.org/2000/svg" xmlns:xlink="http://www.w3.org/1999/xlink" xml:space="preserve" xmlns:serif="http://www.serif.com/" style="fill-rule:evenodd;clip-rule:evenodd;stroke-linejoin:round;stroke-miterlimit:2;">
    <g id="Artboard1" transform="matrix(0.251717,0,0,0.251717,-665.518,-40.3579)">
        <rect x="2643.91" y="160.33" width="368.24" height="368.24" style="fill:none;"/>
        <g transform="matrix(3.41933,0,0,3.41933,-232839,-13474.3)">
            <path d="M68973.8,4031.16C68974.5,4037.58 68974.5,4043.01 68973.8,4048.43L68973.7,4049.58C68973.5,4050.9 68973.3,4052.05 68973.2,4053.37C68973,4055.01 68972.7,4056.66 68972.3,4057.97L68972.2,4058.47C68971.8,4059.95 68971.5,4061.26 68971.2,4062.58C68971,4063.56 68970.7,4064.55 68970.4,4065.54L68970,4066.52C68969.7,4067.51 68969.5,4068.33 68969.2,4069.16C68968.7,4070.47 68968.4,4071.62 68967.9,4072.77C68967.6,4073.6 68967.4,4074.25 68967.1,4074.91L68966.7,4075.9C68964.8,4080.83 68961.3,4084.45 68956.9,4086.59C68954.9,4087.41 68952.9,4088.23 68951.1,4089.06C68949.6,4089.55 68948.2,4090.04 68947,4090.37L68946.7,4090.54C68945.2,4091.03 68943.6,4091.52 68942.1,4091.85C68940.4,4092.35 68939,4092.67 68937.6,4092.84C68935.7,4093.17 68933.7,4093.5 68931.9,4093.66C68928.3,4094.15 68925,4094.32 68921.8,4094.32C68919.7,4094.32 68917.7,4094.15 68915.9,4093.99C68915.4,4093.99 68914.8,4093.83 68914.3,4093.83C68913,4093.83 68911.6,4093.66 68910.3,4093.5C68908.5,4093.33 68906.9,4093 68905.6,4092.67L68904.9,4092.51C68903.4,4092.18 68902.1,4091.85 68900.6,4091.52C68899.6,4091.36 68898.7,4091.03 68897.7,4090.7L68896.7,4090.37C68895.9,4090.04 68895,4089.88 68894.2,4089.55C68893.1,4089.22 68891.7,4088.73 68890.6,4088.23C68889.6,4087.74 68888.5,4087.41 68887.5,4086.92C68883,4084.94 68879.6,4081.65 68877.4,4077.38C68876.6,4075.57 68876,4073.93 68875.1,4071.95C68874.5,4070.31 68874,4068.66 68873.5,4067.02C68873,4065.54 68872.7,4063.89 68872.2,4062.41C68871.8,4060.93 68871.5,4059.45 68871.2,4058.14C68870.9,4056.33 68870.5,4054.52 68870.4,4052.87C68870,4051.06 68869.9,4049.26 68869.7,4047.28C68869.7,4045.8 68869.5,4044.32 68869.5,4042.68L68869.4,4039.72L68869.5,4037.25C68869.7,4035.44 68869.7,4032.97 68870,4030.51C68870.2,4027.87 68870.7,4025.41 68871.2,4023.27C68871.7,4021.13 68872.2,4018.99 68872.8,4016.86C68873.5,4014.55 68874.3,4012.41 68875,4010.61C68875.5,4009.29 68876.1,4007.32 68877.1,4005.34C68879.1,4001.07 68882.5,3997.78 68887,3995.8C68887.3,3995.8 68887.5,3995.64 68887.8,3995.47C68888.5,3995.14 68889.1,3994.98 68889.8,3994.65C68890.9,3994.16 68892.2,3993.83 68893.4,3993.34L68896.4,3992.35L68899.8,3991.36L68903.8,3990.38C68904.7,3990.21 68905.6,3990.05 68906.6,3989.88C68907.5,3989.72 68908.7,3989.55 68909.8,3989.39C68910.5,3989.22 68911.3,3989.22 68912.1,3989.06L68913.5,3988.89C68915.9,3988.57 68918.4,3988.4 68921.2,3988.4C68923,3988.4 68925.1,3988.4 68927.6,3988.57C68929.7,3988.73 68932,3989.06 68934.3,3989.39C68936.6,3989.72 68938.8,3990.21 68940.9,3990.7C68942.7,3991.03 68944.4,3991.53 68946,3992.02C68947.3,3992.35 68948.5,3992.68 68949.6,3993.17L68950.8,3993.5C68951.8,3993.83 68952.9,3994.32 68954.2,3994.82C68954.4,3994.98 68954.7,3994.98 68954.9,3995.14C68956.9,3995.8 68960.3,3997.28 68963.5,4000.74C68965.4,4002.88 68966.6,4005.34 68967.2,4006.82L68967.4,4007.15C68968.1,4008.3 68968.6,4009.62 68969,4010.93C68969.5,4012.25 68970,4013.4 68970.4,4014.72L68970.4,4014.88L68971.4,4018.34C68971.8,4019.65 68972,4020.97 68972.3,4022.12C68972.7,4023.76 68973,4025.57 68973.3,4027.22L68973.8,4031.16Z" style="fill:rgb(246,249,252);"/>
        </g>
    </g>
</svg>
