<?xml version="1.0" encoding="UTF-8" standalone="no"?><!DOCTYPE svg PUBLIC "-//W3C//DTD SVG 1.1//EN" "http://www.w3.org/Graphics/SVG/1.1/DTD/svg11.dtd"><svg width="100%" height="100%" viewBox="0 0 1907 319" version="1.1" xmlns="http://www.w3.org/2000/svg" xmlns:xlink="http://www.w3.org/1999/xlink" xml:space="preserve" xmlns:serif="http://www.serif.com/" style="fill-rule:evenodd;clip-rule:evenodd;stroke-linejoin:round;stroke-miterlimit:2;"><rect id="Artboard1" x="0" y="0" width="1906.98" height="318.05" style="fill:none;"/><g id="Artboard11" serif:id="Artboard1"><path d="M1635.19,176.453c0.417,4.046 0.717,8.11 1.317,12.127c0.633,4.196 1.514,8.354 2.367,12.511c0.666,3.221 1.373,6.441 2.194,9.629c0.717,2.789 1.603,5.536 2.447,8.292c0.708,2.325 1.406,4.655 2.208,6.947c1.04,2.972 2.137,5.921 3.276,8.86c1.046,2.677 2.189,5.321 3.277,7.988c1.809,4.458 4.641,8.063 9.052,10.125c4.72,2.213 9.506,4.299 14.349,6.235c3.126,1.247 6.384,2.184 9.614,3.164c3.881,1.177 7.772,2.32 11.7,3.333c3.057,0.792 6.146,1.495 9.263,2.011c4.988,0.839 9.994,1.58 15.015,2.203c12.333,1.533 24.694,2.213 37.107,1.027c4.908,-0.464 9.84,-0.736 14.719,-1.379c4.341,-0.571 8.635,-1.49 12.929,-2.343c3.408,-0.675 6.806,-1.402 10.177,-2.246c2.752,-0.689 5.452,-1.565 8.17,-2.386c2.283,-0.694 4.571,-1.373 6.83,-2.147c3.104,-1.064 6.202,-2.17 9.268,-3.342c2.606,-0.998 5.175,-2.086 7.739,-3.174c4.022,-1.715 7.074,-4.556 8.94,-8.465c1.964,-4.135 3.754,-8.368 5.414,-12.643c1.514,-3.895 2.803,-7.885 4.078,-11.864c1.209,-3.779 2.344,-7.58 3.38,-11.405c0.801,-2.958 1.5,-5.954 2.062,-8.968c0.825,-4.444 1.571,-8.902 2.194,-13.374c0.619,-4.387 1.205,-8.789 1.51,-13.205c0.361,-5.231 0.407,-10.491 0.679,-18.296c-0.426,-6.08 -0.825,-14.719 -1.697,-23.307c-0.576,-5.7 -1.673,-11.363 -2.817,-16.979c-1.017,-4.987 -2.255,-9.947 -3.712,-14.822c-1.543,-5.17 -3.376,-10.261 -5.246,-15.324c-1.538,-4.176 -3.169,-8.33 -5.016,-12.375c-1.673,-3.657 -4.584,-6.183 -8.297,-7.768c-2.442,-1.045 -4.833,-2.203 -7.289,-3.197c-2.916,-1.181 -5.864,-2.282 -8.827,-3.347c-2.241,-0.811 -4.514,-1.556 -6.792,-2.25c-2.757,-0.843 -5.527,-1.659 -8.316,-2.376c-3.366,-0.863 -6.751,-1.632 -10.135,-2.391c-1.894,-0.427 -3.802,-0.806 -5.719,-1.12c-2.677,-0.441 -5.358,-0.849 -8.049,-1.186c-3.314,-0.418 -6.647,-0.736 -9.966,-1.116c-11.287,-1.303 -22.599,-1.055 -33.901,-0.403c-5.09,0.291 -10.186,0.895 -15.22,1.716c-5.518,0.895 -10.988,2.132 -16.445,3.365c-4.041,0.91 -8.063,1.946 -12.042,3.108c-3.277,0.956 -6.493,2.152 -9.718,3.291c-2.883,1.022 -5.798,1.973 -8.592,3.202c-4.58,2.015 -9.544,3.361 -13.069,7.317c-1.904,2.124 -3.174,4.58 -4.276,7.144c-1.49,3.469 -3.004,6.933 -4.35,10.458c-1.172,3.071 -2.161,6.211 -3.164,9.343c-0.862,2.7 -1.687,5.419 -2.414,8.161c-0.792,2.962 -1.533,5.939 -2.152,8.944c-0.909,4.42 -1.739,8.86 -2.508,13.303c-0.482,2.808 -0.895,5.635 -1.162,8.466c-1.289,13.627 -1.795,27.268 -0.384,40.928m-37.628,-44.556c0.347,-3.595 0.848,-7.303 1.547,-11.344c0.839,-4.842 1.743,-9.675 2.737,-14.508c0.703,-3.418 1.552,-6.947 2.639,-11.007c0.891,-3.356 1.89,-6.67 2.963,-10.046l0.173,-0.543c1.154,-3.6 2.326,-7.201 3.685,-10.773c1.416,-3.698 2.977,-7.345 4.542,-10.987l0.408,-0.952c1.903,-4.411 5.1,-11.025 10.843,-17.443c8.751,-9.816 18.956,-13.927 24.441,-16.135c0.586,-0.239 1.172,-0.464 1.744,-0.717c3.623,-1.594 6.98,-2.766 9.68,-3.703l3.103,-1.102c3.37,-1.2 6.76,-2.386 10.219,-3.398c4.65,-1.36 9.465,-2.602 14.462,-3.732c5.883,-1.326 11.962,-2.695 18.577,-3.778c6.609,-1.073 13.069,-1.795 19.163,-2.142c7.069,-0.408 12.947,-0.6 18.502,-0.6c7.875,-0 15.066,0.394 21.957,1.191l3.586,0.389c2.269,0.243 4.547,0.492 6.75,0.768c3.192,0.399 6.371,0.877 9.554,1.407c2.62,0.431 5.222,0.942 7.847,1.533c3.759,0.843 7.528,1.701 11.278,2.667c3.333,0.858 6.643,1.823 9.915,2.822c2.892,0.881 5.77,1.828 8.639,2.864c3.417,1.228 6.82,2.503 10.242,3.886c1.866,0.755 3.704,1.575 5.537,2.4c0.787,0.356 1.57,0.713 2.404,1.069c12.746,5.452 22.431,14.794 28,26.996c2.629,5.738 4.748,11.321 6.126,15.061c1.894,5.138 4.074,11.157 6.005,17.603c1.768,5.925 3.291,12.014 4.538,18.108c1.237,6.08 2.625,13.205 3.394,20.771c0.712,7.031 1.13,13.88 1.472,19.393l0.459,7.102l-0.276,8.662c-0.136,4.904 -0.258,8.926 -0.535,12.901c-0.384,5.634 -1.097,10.941 -1.791,15.877c-0.67,4.795 -1.476,9.722 -2.465,15.047c-0.722,3.886 -1.646,7.922 -2.747,11.972c-1.181,4.388 -2.48,8.738 -3.882,13.102c-1.556,4.862 -2.995,9.268 -4.837,14.021c-2.133,5.48 -4.266,10.458 -6.539,15.24c-5.888,12.361 -15.728,21.76 -28.426,27.169c-3.029,1.289 -6.057,2.565 -9.071,3.708c-3.497,1.341 -7.017,2.602 -10.533,3.807c-2.353,0.806 -4.735,1.537 -7.111,2.259l-2.78,0.844c-2.724,0.839 -5.447,1.655 -8.227,2.353c-3.989,0.999 -8.02,1.866 -12.01,2.653l-2.006,0.403c-3.97,0.802 -8.475,1.702 -13.369,2.349c-3.802,0.497 -7.632,0.825 -11.461,1.139c-1.533,0.122 -3.071,0.248 -4.622,0.398c-5.387,0.511 -10.998,0.774 -16.674,0.774c-8.954,-0 -18.367,-0.628 -28.773,-1.927c-5.344,-0.661 -10.927,-1.481 -16.623,-2.433c-3.951,-0.661 -8.048,-1.546 -12.473,-2.695c-4.435,-1.144 -8.841,-2.433 -13.248,-3.764l-1.144,-0.347c-3.239,-0.98 -7.27,-2.189 -11.569,-3.905c-5.367,-2.147 -10.866,-4.533 -16.364,-7.106c-12.863,-6.024 -22.628,-16.52 -28.225,-30.306l-1.125,-2.728c-0.797,-1.908 -1.593,-3.825 -2.395,-5.874c-1.284,-3.328 -2.531,-6.67 -3.736,-10.111c-0.849,-2.438 -1.617,-4.903 -2.372,-7.374l-0.82,-2.676c-0.839,-2.724 -1.665,-5.457 -2.372,-8.204c-0.98,-3.792 -1.829,-7.636 -2.625,-11.513l-0.31,-1.49c-0.797,-3.882 -1.701,-8.283 -2.414,-13.009c-0.534,-3.548 -0.891,-7.129 -1.233,-10.706l-0.309,-3.15c-1.505,-14.584 -1.392,-29.978 0.361,-48.48" style="fill:#0249e5;fill-rule:nonzero;"/><path d="M1232.04,177.379c0.44,4.266 0.754,8.551 1.392,12.784c0.661,4.425 1.594,8.808 2.494,13.186c0.698,3.399 1.448,6.792 2.311,10.154c0.754,2.939 1.692,5.836 2.578,8.742c0.75,2.447 1.486,4.903 2.33,7.322c1.092,3.131 2.25,6.239 3.455,9.338c1.101,2.822 2.306,5.606 3.45,8.419c1.908,4.702 4.894,8.503 9.544,10.678c4.973,2.325 10.022,4.529 15.122,6.568c3.295,1.317 6.732,2.306 10.135,3.337c4.092,1.238 8.198,2.443 12.338,3.511c3.22,0.84 6.478,1.575 9.759,2.124c5.26,0.881 10.543,1.659 15.831,2.316c12.998,1.617 26.035,2.339 39.118,1.087c5.17,-0.492 10.369,-0.778 15.516,-1.453c4.571,-0.605 9.099,-1.575 13.627,-2.47c3.591,-0.713 7.177,-1.482 10.725,-2.368c2.902,-0.726 5.747,-1.654 8.612,-2.517c2.409,-0.731 4.823,-1.448 7.205,-2.264c3.272,-1.12 6.534,-2.288 9.764,-3.52c2.747,-1.051 5.456,-2.199 8.161,-3.347c4.238,-1.805 7.458,-4.801 9.422,-8.926c2.072,-4.359 3.961,-8.822 5.71,-13.327c1.594,-4.106 2.953,-8.311 4.298,-12.506c1.275,-3.98 2.471,-7.988 3.563,-12.024c0.844,-3.118 1.58,-6.272 2.175,-9.451c0.867,-4.682 1.65,-9.384 2.311,-14.095c0.652,-4.627 1.27,-9.268 1.589,-13.918c0.385,-5.522 0.432,-11.063 0.717,-19.29c-0.445,-6.412 -0.871,-15.516 -1.786,-24.568c-0.609,-6.009 -1.762,-11.977 -2.971,-17.902c-1.074,-5.255 -2.377,-10.481 -3.915,-15.619c-1.626,-5.452 -3.558,-10.819 -5.526,-16.158c-1.622,-4.402 -3.343,-8.78 -5.293,-13.041c-1.758,-3.854 -4.828,-6.521 -8.742,-8.19c-2.574,-1.101 -5.091,-2.32 -7.683,-3.37c-3.071,-1.242 -6.183,-2.405 -9.305,-3.53c-2.363,-0.853 -4.758,-1.636 -7.163,-2.367c-2.906,-0.891 -5.822,-1.753 -8.766,-2.508c-3.544,-0.909 -7.111,-1.72 -10.683,-2.522c-1.997,-0.445 -4.008,-0.848 -6.028,-1.177c-2.818,-0.468 -5.644,-0.895 -8.48,-1.251c-3.497,-0.441 -7.008,-0.778 -10.51,-1.177c-11.897,-1.373 -23.823,-1.111 -35.734,-0.426c-5.367,0.309 -10.739,0.942 -16.051,1.809c-5.812,0.947 -11.578,2.25 -17.33,3.549c-4.261,0.961 -8.498,2.053 -12.694,3.276c-3.455,1.008 -6.844,2.264 -10.242,3.469c-3.043,1.078 -6.113,2.081 -9.062,3.375c-4.828,2.124 -10.055,3.539 -13.777,7.711c-2.001,2.241 -3.342,4.829 -4.505,7.533c-1.57,3.657 -3.164,7.309 -4.584,11.026c-1.233,3.234 -2.278,6.544 -3.333,9.844c-0.909,2.85 -1.777,5.714 -2.55,8.606c-0.83,3.122 -1.613,6.263 -2.264,9.427c-0.961,4.66 -1.838,9.338 -2.644,14.021c-0.511,2.963 -0.942,5.939 -1.228,8.925c-1.36,14.363 -1.894,28.75 -0.403,43.145m-31.079,-46.093c0.328,-3.521 0.834,-7.238 1.542,-11.335c0.867,-5.016 1.805,-10.031 2.836,-15.033c0.769,-3.755 1.692,-7.482 2.686,-11.218c0.9,-3.37 1.912,-6.722 2.986,-10.083l0.234,-0.731c1.153,-3.614 2.325,-7.224 3.675,-10.754c1.44,-3.769 3.033,-7.491 4.627,-11.203l0.45,-1.045c1.767,-4.097 4.716,-10.22 9.961,-16.084c7.88,-8.831 17.068,-12.53 22.553,-14.747c0.698,-0.281 1.406,-0.558 2.1,-0.863c3.492,-1.537 6.703,-2.653 9.539,-3.642l3.375,-1.195c3.389,-1.21 6.793,-2.405 10.266,-3.422c4.814,-1.402 9.722,-2.668 14.598,-3.769l0.553,-0.117c5.934,-1.336 12.07,-2.719 18.638,-3.788c6.694,-1.088 13.2,-1.814 19.313,-2.166c7.284,-0.417 13.322,-0.609 19.008,-0.609c7.965,-0 15.212,0.389 22.178,1.191l3.909,0.431c2.316,0.248 4.631,0.501 6.867,0.783c3.258,0.403 6.507,0.895 9.657,1.415c2.644,0.436 5.278,0.957 7.866,1.533c3.877,0.877 7.753,1.758 11.663,2.757c3.394,0.871 6.759,1.865 10.041,2.868c2.934,0.886 5.85,1.847 8.7,2.879c3.52,1.265 7.022,2.573 10.486,3.984c1.885,0.76 3.736,1.585 5.588,2.419c0.877,0.398 1.753,0.792 2.625,1.167c11.429,4.88 20.101,13.219 25.088,24.123c2.039,4.467 4.013,9.314 6.197,15.253c1.955,5.297 4.201,11.49 6.165,18.043c1.767,5.939 3.314,12.104 4.598,18.362c1.261,6.206 2.677,13.463 3.441,21.029c0.731,7.214 1.167,14.325 1.519,20.044l0.464,7.158l-0.272,8.705c-0.145,5.049 -0.272,9.192 -0.553,13.289c-0.389,5.654 -1.111,11.073 -1.824,16.159c-0.689,4.922 -1.518,9.98 -2.536,15.464c-0.717,3.863 -1.64,7.885 -2.737,11.94c-1.219,4.514 -2.555,8.991 -3.971,13.397c-1.523,4.772 -3.047,9.46 -4.945,14.335c-2.161,5.569 -4.332,10.627 -6.638,15.483c-5.292,11.091 -14.133,19.534 -25.604,24.418c-3.061,1.308 -6.141,2.597 -9.239,3.783c-3.582,1.364 -7.191,2.663 -10.744,3.877c-2.48,0.853 -4.988,1.617 -7.501,2.376l-2.826,0.863c-2.705,0.83 -5.4,1.645 -8.129,2.325c-4.059,1.013 -8.161,1.898 -12.244,2.705l-2.109,0.422c-4.055,0.815 -8.644,1.739 -13.524,2.381c-3.9,0.516 -7.828,0.848 -11.752,1.167c-1.641,0.131 -3.277,0.267 -4.899,0.417c-5.404,0.521 -11.048,0.779 -16.767,0.779c-9.076,-0 -18.643,-0.643 -29.247,-1.96c-5.545,-0.689 -11.32,-1.533 -17.124,-2.508c-3.904,-0.647 -7.997,-1.533 -12.506,-2.695c-4.542,-1.181 -9.052,-2.503 -13.585,-3.867l-1.186,-0.357c-3.431,-1.04 -7.322,-2.212 -11.513,-3.886c-5.48,-2.189 -11.128,-4.641 -16.782,-7.284c-11.569,-5.41 -20.363,-14.898 -25.435,-27.395l-1.186,-2.869c-0.834,-1.997 -1.664,-3.998 -2.442,-5.991c-1.341,-3.44 -2.625,-6.9 -3.844,-10.402c-0.9,-2.578 -1.706,-5.189 -2.503,-7.8l-0.722,-2.339c-0.863,-2.808 -1.72,-5.62 -2.456,-8.475c-0.989,-3.853 -1.852,-7.744 -2.663,-11.677l-0.319,-1.547c-0.867,-4.21 -1.762,-8.564 -2.47,-13.285c-0.539,-3.614 -0.9,-7.266 -1.247,-10.917l-0.323,-3.315c-1.533,-14.794 -1.411,-30.488 0.375,-49.351" style="fill:#0249e5;fill-rule:nonzero;"/><path d="M827.249,178.559c0.469,4.543 0.807,9.108 1.482,13.623c0.707,4.711 1.701,9.38 2.658,14.049c0.745,3.618 1.542,7.237 2.461,10.814c0.806,3.131 1.804,6.216 2.751,9.314c0.792,2.607 1.58,5.227 2.48,7.801c1.167,3.337 2.395,6.651 3.68,9.947c1.172,3.009 2.456,5.977 3.675,8.972c2.034,5.006 5.213,9.061 10.172,11.377c5.297,2.48 10.674,4.823 16.112,6.999c3.511,1.401 7.167,2.456 10.795,3.553c4.36,1.322 8.733,2.606 13.144,3.745c3.432,0.891 6.901,1.674 10.402,2.26c5.602,0.937 11.227,1.772 16.866,2.47c13.848,1.72 27.733,2.489 41.674,1.158c5.508,-0.525 11.048,-0.83 16.533,-1.552c4.87,-0.642 9.694,-1.673 14.518,-2.63c3.825,-0.759 7.645,-1.579 11.428,-2.521c3.089,-0.774 6.127,-1.763 9.174,-2.682c2.569,-0.778 5.138,-1.542 7.674,-2.414c3.487,-1.195 6.961,-2.438 10.406,-3.755c2.925,-1.115 5.813,-2.339 8.696,-3.562c4.514,-1.922 7.941,-5.115 10.036,-9.507c2.208,-4.645 4.219,-9.399 6.085,-14.199c1.696,-4.378 3.145,-8.855 4.579,-13.327c1.36,-4.237 2.635,-8.508 3.797,-12.806c0.9,-3.324 1.683,-6.69 2.316,-10.074c0.924,-4.988 1.758,-9.994 2.461,-15.015c0.694,-4.931 1.355,-9.872 1.697,-14.831c0.408,-5.879 0.459,-11.785 0.759,-20.551c-0.473,-6.83 -0.923,-16.529 -1.903,-26.176c-0.647,-6.399 -1.875,-12.76 -3.164,-19.069c-1.144,-5.597 -2.531,-11.171 -4.167,-16.646c-1.735,-5.808 -3.797,-11.522 -5.893,-17.213c-1.729,-4.688 -3.558,-9.352 -5.634,-13.894c-1.875,-4.107 -5.147,-6.948 -9.319,-8.729c-2.743,-1.172 -5.424,-2.47 -8.185,-3.591c-3.272,-1.321 -6.591,-2.559 -9.914,-3.759c-2.518,-0.909 -5.068,-1.744 -7.627,-2.522c-3.099,-0.947 -6.206,-1.866 -9.343,-2.672c-3.778,-0.966 -7.579,-1.828 -11.381,-2.686c-2.128,-0.473 -4.271,-0.9 -6.422,-1.256c-3.005,-0.492 -6.014,-0.952 -9.038,-1.332c-3.722,-0.468 -7.467,-0.825 -11.199,-1.256c-12.671,-1.462 -25.379,-1.176 -38.068,-0.45c-5.719,0.328 -11.443,1.003 -17.101,1.927c-6.192,1.008 -12.333,2.4 -18.464,3.778c-4.538,1.022 -9.057,2.189 -13.524,3.492c-3.685,1.074 -7.29,2.414 -10.913,3.699c-3.239,1.148 -6.516,2.217 -9.652,3.595c-5.147,2.26 -10.716,3.774 -14.682,8.213c-2.133,2.386 -3.558,5.147 -4.795,8.025c-1.678,3.9 -3.375,7.791 -4.885,11.752c-1.317,3.446 -2.433,6.971 -3.553,10.486c-0.97,3.038 -1.894,6.09 -2.714,9.165c-0.891,3.328 -1.725,6.675 -2.419,10.05c-1.022,4.96 -1.955,9.947 -2.813,14.94c-0.548,3.15 -1.007,6.323 -1.307,9.506c-1.449,15.305 -2.016,30.629 -0.432,45.967m-23.939,-48.25c0.328,-3.511 0.839,-7.237 1.551,-11.372c0.905,-5.25 1.889,-10.491 2.963,-15.727c0.787,-3.825 1.729,-7.622 2.747,-11.428c0.918,-3.455 1.95,-6.877 3.047,-10.313l0.253,-0.783c1.176,-3.685 2.367,-7.364 3.745,-10.969c1.486,-3.9 3.132,-7.739 4.782,-11.574l0.482,-1.12c1.627,-3.774 4.332,-9.399 9.024,-14.649c6.961,-7.805 15.174,-11.11 20.602,-13.299c0.835,-0.338 1.669,-0.67 2.499,-1.031c3.389,-1.491 6.628,-2.621 9.483,-3.615l3.67,-1.293c3.446,-1.233 6.896,-2.452 10.416,-3.483c4.946,-1.439 9.98,-2.738 15.001,-3.868l0.586,-0.131c6.188,-1.392 12.591,-2.831 19.318,-3.928c6.811,-1.106 13.42,-1.847 19.617,-2.199c7.585,-0.436 13.852,-0.637 19.726,-0.637c8.129,-0 15.507,0.394 22.571,1.205l4.238,0.468c2.409,0.258 4.823,0.521 7.167,0.821c3.342,0.417 6.68,0.918 9.947,1.458c2.63,0.431 5.26,0.951 7.838,1.532c4.046,0.905 8.086,1.824 12.146,2.865c3.483,0.9 6.942,1.917 10.327,2.948c2.967,0.9 5.925,1.875 8.817,2.921c3.638,1.307 7.257,2.662 10.829,4.111c1.898,0.768 3.769,1.603 5.634,2.447c0.989,0.44 1.974,0.89 2.963,1.307c10.031,4.29 17.625,11.57 21.971,21.067c2.072,4.537 4.087,9.502 6.338,15.605c2.029,5.508 4.364,11.953 6.379,18.675c1.81,6.066 3.39,12.371 4.697,18.76c1.365,6.69 2.757,13.857 3.53,21.493c0.76,7.505 1.224,14.987 1.589,20.992l0.469,7.228l-0.276,8.85c-0.146,5.241 -0.277,9.535 -0.568,13.791c-0.398,5.729 -1.111,11.096 -1.879,16.566c-0.713,5.105 -1.575,10.37 -2.635,16.079c-0.722,3.872 -1.645,7.913 -2.751,12c-1.266,4.66 -2.649,9.301 -4.116,13.867c-1.58,4.945 -3.155,9.787 -5.077,14.742c-2.222,5.724 -4.449,10.904 -6.806,15.868c-4.655,9.76 -12.451,17.19 -22.562,21.502c-3.155,1.346 -6.333,2.682 -9.525,3.9c-3.718,1.421 -7.463,2.761 -11.166,4.032c-2.532,0.867 -5.091,1.65 -7.651,2.419l-3.065,0.937c-2.715,0.834 -5.433,1.655 -8.176,2.339c-4.181,1.05 -8.395,1.955 -12.605,2.785l-2.273,0.454c-4.374,0.882 -8.907,1.791 -13.801,2.433c-3.998,0.53 -8.03,0.867 -12.056,1.196c-1.786,0.145 -3.577,0.29 -5.349,0.459c-5.47,0.525 -11.189,0.787 -16.988,0.787c-9.286,0 -19.111,-0.66 -30.029,-2.02c-5.775,-0.717 -11.804,-1.598 -17.874,-2.62c-3.881,-0.642 -7.978,-1.528 -12.516,-2.7c-4.725,-1.224 -9.413,-2.597 -14.11,-4.018l-1.28,-0.384c-3.478,-1.05 -7.42,-2.236 -11.508,-3.872c-5.677,-2.269 -11.531,-4.814 -17.396,-7.552c-10.177,-4.763 -17.953,-13.182 -22.468,-24.319l-1.289,-3.127c-0.862,-2.063 -1.72,-4.125 -2.522,-6.183c-1.392,-3.563 -2.718,-7.153 -3.984,-10.772c-0.919,-2.635 -1.744,-5.302 -2.555,-7.969l-0.769,-2.508c-0.886,-2.86 -1.753,-5.714 -2.508,-8.611c-1.017,-3.966 -1.898,-7.965 -2.732,-11.996l-0.338,-1.655c-0.9,-4.369 -1.828,-8.878 -2.545,-13.669c-0.558,-3.685 -0.919,-7.411 -1.271,-11.129l-0.351,-3.614c-1.566,-15.141 -1.439,-31.285 0.408,-50.772" style="fill:#0249e5;fill-rule:nonzero;"/><path d="M421.988,179.813c0.502,4.838 0.858,9.704 1.575,14.509c0.755,5.02 1.815,9.994 2.832,14.967c0.797,3.853 1.645,7.707 2.625,11.518c0.862,3.342 1.922,6.623 2.93,9.924c0.848,2.779 1.683,5.564 2.639,8.311c1.247,3.553 2.555,7.083 3.923,10.594c1.247,3.206 2.616,6.37 3.915,9.558c2.165,5.335 5.554,9.652 10.833,12.118c5.648,2.643 11.372,5.137 17.166,7.453c3.741,1.495 7.636,2.62 11.499,3.792c4.645,1.402 9.3,2.771 14.002,3.985c3.656,0.947 7.35,1.786 11.077,2.409c5.972,0.999 11.963,1.885 17.967,2.63c14.752,1.833 29.547,2.648 44.392,1.233c5.869,-0.558 11.771,-0.881 17.612,-1.65c5.189,-0.685 10.327,-1.786 15.465,-2.808c4.078,-0.806 8.147,-1.678 12.173,-2.681c3.291,-0.826 6.526,-1.88 9.774,-2.86c2.733,-0.825 5.475,-1.641 8.175,-2.569c3.713,-1.275 7.416,-2.597 11.087,-3.998c3.117,-1.191 6.192,-2.49 9.258,-3.797c4.809,-2.049 8.466,-5.447 10.692,-10.126c2.353,-4.95 4.496,-10.013 6.483,-15.127c1.805,-4.659 3.352,-9.431 4.875,-14.194c1.449,-4.519 2.808,-9.066 4.046,-13.646c0.961,-3.534 1.795,-7.12 2.466,-10.725c0.989,-5.316 1.875,-10.65 2.625,-15.999c0.74,-5.25 1.443,-10.514 1.804,-15.797c0.436,-6.263 0.488,-12.554 0.811,-21.892c-0.506,-7.275 -0.984,-17.606 -2.025,-27.882c-0.689,-6.816 -2.001,-13.589 -3.37,-20.316c-1.219,-5.963 -2.7,-11.897 -4.444,-17.729c-1.847,-6.187 -4.041,-12.277 -6.272,-18.338c-1.842,-4.992 -3.792,-9.961 -6.005,-14.799c-1.997,-4.373 -5.48,-7.397 -9.924,-9.295c-2.92,-1.247 -5.78,-2.63 -8.719,-3.826c-3.487,-1.41 -7.022,-2.728 -10.561,-4.003c-2.681,-0.97 -5.4,-1.861 -8.128,-2.69c-3.3,-1.008 -6.61,-1.988 -9.948,-2.846c-4.026,-1.031 -8.076,-1.95 -12.127,-2.859c-2.264,-0.507 -4.547,-0.961 -6.839,-1.336c-3.201,-0.53 -6.408,-1.018 -9.628,-1.421c-3.966,-0.501 -7.955,-0.881 -11.926,-1.34c-13.5,-1.557 -27.038,-1.257 -40.557,-0.478c-6.089,0.346 -12.183,1.068 -18.212,2.053c-6.6,1.073 -13.139,2.554 -19.669,4.022c-4.838,1.092 -9.647,2.334 -14.405,3.722c-3.924,1.143 -7.772,2.573 -11.63,3.937c-3.45,1.224 -6.938,2.363 -10.28,3.83c-5.48,2.41 -11.415,4.022 -15.638,8.752c-2.269,2.541 -3.793,5.48 -5.11,8.55c-1.786,4.149 -3.595,8.297 -5.203,12.512c-1.402,3.675 -2.588,7.43 -3.783,11.175c-1.036,3.234 -2.02,6.483 -2.892,9.764c-0.947,3.544 -1.838,7.107 -2.574,10.702c-1.087,5.288 -2.081,10.594 -3,15.915c-0.581,3.356 -1.069,6.736 -1.392,10.13c-1.542,16.299 -2.147,32.621 -0.46,48.962m-15.731,-50.509c0.333,-3.539 0.843,-7.252 1.556,-11.354c0.947,-5.494 1.969,-10.973 3.094,-16.425c0.806,-3.896 1.762,-7.772 2.789,-11.593c0.942,-3.544 2.002,-7.059 3.239,-10.931c1.247,-3.905 2.499,-7.815 3.961,-11.63c1.533,-4.027 3.239,-7.993 4.941,-11.954l0.516,-1.191c1.579,-3.684 3.914,-8.479 7.912,-12.947c5.888,-6.595 13.051,-9.488 18.282,-11.597c0.985,-0.394 1.969,-0.788 2.958,-1.224c3.253,-1.425 6.366,-2.507 9.375,-3.562l3.919,-1.383c3.511,-1.256 7.027,-2.503 10.604,-3.544c5.086,-1.486 10.256,-2.817 15.385,-3.97l0.567,-0.132c6.473,-1.457 13.172,-2.962 20.058,-4.083c6.915,-1.125 13.613,-1.875 19.885,-2.231c7.885,-0.455 14.387,-0.665 20.448,-0.665c8.283,-0 15.774,0.403 22.913,1.223l4.566,0.502c2.517,0.271 5.034,0.543 7.495,0.857c3.441,0.427 6.868,0.947 10.234,1.505c2.611,0.422 5.212,0.942 7.79,1.519c4.215,0.947 8.415,1.903 12.62,2.977c3.576,0.918 7.115,1.964 10.617,3.033c3,0.909 5.982,1.889 8.93,2.957c3.736,1.35 7.458,2.733 11.157,4.229c1.903,0.778 3.783,1.622 5.662,2.465c1.107,0.497 2.218,0.994 3.333,1.477c8.396,3.595 14.729,9.633 18.32,17.49c2.104,4.603 4.162,9.67 6.469,15.938c2.231,6.037 4.575,12.506 6.6,19.303c1.865,6.254 3.483,12.69 4.795,19.14c1.411,6.905 2.846,14.288 3.614,21.924c0.783,7.711 1.266,15.498 1.65,21.751c0.15,2.4 0.483,7.477 0.483,7.477l-0.281,8.986c-0.15,5.442 -0.281,9.886 -0.591,14.325c-0.412,5.921 -1.176,11.616 -1.922,16.932c-0.782,5.583 -1.711,11.157 -2.742,16.726c-0.74,3.942 -1.673,7.987 -2.756,11.981c-1.303,4.819 -2.733,9.601 -4.257,14.368c-1.711,5.349 -3.29,10.177 -5.203,15.104c-2.212,5.704 -4.552,11.161 -6.961,16.247c-3.914,8.208 -10.482,14.466 -19.018,18.104c-3.258,1.378 -6.516,2.761 -9.811,4.012c-3.849,1.468 -7.73,2.86 -11.597,4.186c-2.569,0.886 -5.171,1.674 -7.772,2.457l-3.254,0.993c-2.747,0.844 -5.498,1.679 -8.269,2.377c-4.289,1.074 -8.625,2.002 -12.956,2.86l-2.485,0.496c-4.491,0.901 -9.141,1.833 -14.011,2.476c-4.102,0.543 -8.232,0.886 -12.361,1.223c-1.951,0.155 -3.901,0.309 -5.841,0.497c-5.513,0.525 -11.288,0.792 -17.152,0.792c-9.479,0 -19.553,-0.68 -30.789,-2.076c-6.009,-0.741 -12.286,-1.665 -18.619,-2.724c-3.863,-0.647 -7.955,-1.528 -12.493,-2.705c-4.908,-1.275 -9.778,-2.7 -14.658,-4.172l-1.435,-0.436c-3.661,-1.101 -7.448,-2.245 -11.381,-3.815c-5.907,-2.368 -11.963,-4.998 -18.01,-7.824c-8.672,-4.055 -15.066,-11.03 -19.004,-20.715l-1.406,-3.403c-0.891,-2.124 -1.772,-4.252 -2.611,-6.403c-1.43,-3.68 -2.808,-7.388 -4.111,-11.124c-0.914,-2.607 -1.725,-5.246 -2.532,-7.89l-0.928,-3.042c-0.89,-2.85 -1.767,-5.709 -2.508,-8.606c-1.05,-4.069 -1.959,-8.176 -2.807,-12.305l-0.333,-1.622c-0.943,-4.571 -1.913,-9.291 -2.649,-14.209c-0.553,-3.689 -0.914,-7.416 -1.266,-11.138l-0.407,-4.101c-1.599,-15.493 -1.454,-32.073 0.45,-52.183" style="fill:#0249e5;fill-rule:nonzero;"/><path d="M15.602,181.242c0.534,5.175 0.918,10.383 1.687,15.52c0.806,5.372 1.941,10.693 3.028,16.013c0.849,4.121 1.758,8.246 2.808,12.324c0.919,3.568 2.053,7.083 3.132,10.613c0.909,2.972 1.8,5.953 2.826,8.888c1.332,3.806 2.733,7.58 4.196,11.339c1.336,3.432 2.798,6.811 4.186,10.224c2.32,5.705 5.944,10.322 11.592,12.961c6.038,2.827 12.165,5.499 18.362,7.974c3.998,1.599 8.166,2.799 12.3,4.055c4.969,1.5 9.952,2.967 14.977,4.266c3.914,1.012 7.866,1.908 11.855,2.573c6.385,1.069 12.793,2.021 19.22,2.818c15.778,1.959 31.604,2.836 47.49,1.317c6.277,-0.6 12.591,-0.942 18.84,-1.767c5.55,-0.732 11.044,-1.908 16.543,-3.001c4.359,-0.862 8.714,-1.795 13.022,-2.868c3.52,-0.882 6.98,-2.011 10.458,-3.061c2.925,-0.882 5.855,-1.754 8.743,-2.747c3.975,-1.36 7.936,-2.776 11.859,-4.276c3.333,-1.275 6.624,-2.667 9.91,-4.064c5.142,-2.194 9.052,-5.827 11.433,-10.833c2.517,-5.292 4.81,-10.711 6.933,-16.182c1.936,-4.987 3.586,-10.088 5.218,-15.183c1.551,-4.833 3.004,-9.699 4.326,-14.597c1.032,-3.783 1.922,-7.618 2.639,-11.476c1.055,-5.686 2.011,-11.395 2.813,-17.114c0.788,-5.616 1.538,-11.251 1.931,-16.899c0.46,-6.704 0.521,-13.43 0.868,-23.42c-0.544,-7.781 -1.055,-18.835 -2.171,-29.827c-0.736,-7.294 -2.142,-14.541 -3.605,-21.732c-1.303,-6.38 -2.887,-12.727 -4.753,-18.966c-1.978,-6.619 -4.322,-13.135 -6.713,-19.618c-1.968,-5.344 -4.054,-10.66 -6.422,-15.835c-2.137,-4.678 -5.864,-7.913 -10.617,-9.943c-3.122,-1.336 -6.183,-2.817 -9.329,-4.092c-3.726,-1.509 -7.509,-2.92 -11.297,-4.285c-2.869,-1.035 -5.775,-1.987 -8.691,-2.873c-3.53,-1.078 -7.073,-2.128 -10.645,-3.047c-4.304,-1.102 -8.64,-2.086 -12.971,-3.061c-2.424,-0.539 -4.866,-1.027 -7.318,-1.43c-3.422,-0.562 -6.858,-1.087 -10.298,-1.514c-4.247,-0.539 -8.508,-0.947 -12.76,-1.434c-14.443,-1.669 -28.923,-1.346 -43.384,-0.511c-6.516,0.37 -13.037,1.139 -19.487,2.194c-7.06,1.148 -14.058,2.732 -21.038,4.303c-5.175,1.167 -10.322,2.494 -15.413,3.98c-4.2,1.223 -8.311,2.751 -12.436,4.214c-3.694,1.308 -7.426,2.526 -11.002,4.097c-5.86,2.578 -12.212,4.298 -16.726,9.361c-2.433,2.719 -4.059,5.864 -5.47,9.146c-1.908,4.444 -3.844,8.878 -5.565,13.388c-1.5,3.928 -2.77,7.945 -4.05,11.953c-1.106,3.46 -2.161,6.933 -3.094,10.444c-1.007,3.793 -1.964,7.604 -2.751,11.447c-1.163,5.658 -2.227,11.34 -3.211,17.026c-0.619,3.591 -1.144,7.21 -1.486,10.838c-1.65,17.438 -2.302,34.899 -0.492,52.38m-6.371,-53.022c0.323,-3.455 0.83,-7.177 1.552,-11.363c0.993,-5.761 2.072,-11.513 3.253,-17.246c0.811,-3.971 1.795,-7.913 2.841,-11.841c0.965,-3.614 2.048,-7.191 3.187,-10.768l0.281,-0.862c1.224,-3.839 2.461,-7.683 3.896,-11.447c1.589,-4.168 3.356,-8.269 5.119,-12.371l0.553,-1.285c1.373,-3.197 3.38,-7.34 6.661,-11.011c4.669,-5.227 10.505,-7.58 15.652,-9.656c1.158,-0.464 2.311,-0.929 3.446,-1.425c3.023,-1.327 6.154,-2.429 9.281,-3.516l4.411,-1.561c3.511,-1.252 7.018,-2.499 10.59,-3.544c5.175,-1.509 10.505,-2.883 16.242,-4.177c6.84,-1.542 13.909,-3.131 21.034,-4.294c7.008,-1.143 13.805,-1.907 20.194,-2.268c8.227,-0.474 14.982,-0.694 21.263,-0.694c8.457,-0 16.084,0.403 23.312,1.237l4.931,0.544c2.64,0.281 5.274,0.567 7.894,0.895c3.526,0.446 7.055,0.975 10.557,1.557c2.583,0.422 5.156,0.937 7.711,1.504c4.407,0.994 8.808,1.993 13.182,3.113c3.67,0.942 7.313,2.02 10.931,3.127c3.029,0.919 6.048,1.908 9.024,2.986c3.872,1.392 7.74,2.836 11.555,4.383c1.913,0.773 3.802,1.622 5.686,2.475c1.252,0.562 2.499,1.125 3.751,1.664c6.553,2.789 11.456,7.43 14.189,13.416c2.133,4.669 4.238,9.853 6.624,16.318c2.203,5.981 4.734,12.947 6.848,20.03c1.889,6.328 3.54,12.91 4.904,19.562c1.443,7.106 2.92,14.686 3.708,22.416c0.82,8.142 1.331,16.435 1.739,23.101l0.468,7.303l-0.281,9.127c-0.159,5.648 -0.29,10.275 -0.609,14.883c-0.403,5.85 -1.167,11.56 -1.978,17.382c-0.816,5.822 -1.786,11.635 -2.86,17.415c-0.717,3.843 -1.641,7.889 -2.761,12.023c-1.355,4.997 -2.836,9.966 -4.416,14.893c-1.706,5.321 -3.394,10.51 -5.358,15.582c-2.353,6.056 -4.683,11.503 -7.139,16.65c-3.066,6.437 -8.236,11.349 -14.963,14.213c-3.356,1.43 -6.731,2.855 -10.149,4.163c-3.994,1.528 -8.03,2.967 -12.075,4.355c-2.658,0.914 -5.349,1.73 -8.044,2.54l-3.469,1.06c-2.733,0.839 -5.475,1.678 -8.26,2.377c-4.425,1.101 -8.883,2.057 -13.35,2.943l-2.644,0.53c-4.645,0.933 -9.455,1.899 -14.344,2.541c-4.2,0.558 -8.428,0.9 -12.661,1.242c-2.143,0.178 -4.285,0.352 -6.418,0.558c-5.573,0.53 -11.414,0.797 -17.363,0.797c-9.708,-0 -20.054,-0.699 -31.637,-2.143c-6.248,-0.773 -12.816,-1.734 -19.51,-2.854c-3.811,-0.638 -7.884,-1.519 -12.436,-2.7c-5.119,-1.322 -10.196,-2.813 -15.258,-4.341l-1.486,-0.45c-3.722,-1.125 -7.576,-2.283 -11.373,-3.802c-6.103,-2.437 -12.403,-5.175 -18.727,-8.128c-6.806,-3.183 -11.874,-8.776 -15.057,-16.613l-1.556,-3.769c-0.909,-2.18 -1.809,-4.36 -2.667,-6.553c-1.491,-3.835 -2.921,-7.684 -4.28,-11.565c-0.961,-2.752 -1.819,-5.55 -2.667,-8.335l-0.886,-2.892c-0.905,-2.93 -1.81,-5.864 -2.569,-8.831c-1.078,-4.186 -2.016,-8.419 -2.892,-12.662l-0.385,-1.903c-0.975,-4.702 -1.968,-9.558 -2.7,-14.466c-0.581,-3.825 -0.951,-7.683 -1.312,-11.541l-0.417,-4.294c-1.641,-15.844 -1.486,-32.921 0.487,-53.734" style="fill:#0249e5;fill-rule:nonzero;"/></g></svg>