<?xml version="1.0" encoding="UTF-8" standalone="no"?><!DOCTYPE svg PUBLIC "-//W3C//DTD SVG 1.1//EN" "http://www.w3.org/Graphics/SVG/1.1/DTD/svg11.dtd"><svg width="100%" height="100%" viewBox="0 0 435 133" version="1.1" xmlns="http://www.w3.org/2000/svg" xmlns:xlink="http://www.w3.org/1999/xlink" xml:space="preserve" xmlns:serif="http://www.serif.com/" style="fill-rule:evenodd;clip-rule:evenodd;stroke-linejoin:round;stroke-miterlimit:2;"><rect id="Artboard1" x="0" y="0" width="434.158" height="132.439" style="fill:none;"/><g id="Artboard11" serif:id="Artboard1"><path d="M432.437,1.421l-0,129.301l-431.161,-0l0,-129.301l431.161,0Zm-374.685,27.317l-26.996,71.656l15.798,-0l5.6,-15.957l26.696,-0l5.399,15.957l16.295,-0l-26.695,-71.656l-16.097,0Zm-1.498,43.956l9.298,-26.292l0.201,0l8.997,26.292l-18.496,0Zm253.905,-16.158c-2.1,-2.876 -4.784,-5.169 -8.049,-6.875c-3.266,-1.705 -7.098,-2.559 -11.498,-2.559c-3.933,-0 -7.515,0.703 -10.748,2.108c-3.234,1.406 -6.016,3.33 -8.348,5.771c-2.334,2.445 -4.134,5.336 -5.399,8.682c-1.268,3.346 -1.9,6.959 -1.9,10.838c0,4.015 0.616,7.694 1.85,11.039c1.232,3.347 2.982,6.223 5.249,8.631c2.265,2.409 5.032,4.265 8.298,5.571c3.265,1.304 6.932,1.957 10.998,1.957c5.865,-0 10.864,-1.337 14.998,-4.014c4.132,-2.675 7.198,-7.126 9.198,-13.348l-12.497,-0c-0.467,1.606 -1.735,3.127 -3.799,4.566c-2.067,1.438 -4.534,2.157 -7.4,2.157c-4,-0 -7.066,-1.037 -9.199,-3.112c-2.134,-2.072 -3.299,-5.418 -3.498,-10.034l37.294,-0c0.265,-4.015 -0.067,-7.861 -1,-11.543c-0.933,-3.678 -2.45,-6.957 -4.55,-9.835Zm-31.744,12.345c0.065,-1.003 0.283,-2.14 0.649,-3.413c0.366,-1.269 1,-2.475 1.9,-3.613c0.9,-1.135 2.099,-2.09 3.599,-2.858c1.501,-0.769 3.383,-1.154 5.65,-1.154c3.464,-0 6.049,0.935 7.749,2.809c1.699,1.873 2.881,4.616 3.548,8.229l-23.095,0Zm86.384,-15.907c-1.4,-1.839 -3.317,-3.277 -5.75,-4.316c-2.435,-1.035 -5.549,-1.555 -9.349,-1.555c-2.999,0 -5.932,0.687 -8.798,2.058c-2.865,1.372 -5.198,3.563 -6.998,6.574l-0.3,0l0,-7.226l-13.497,0l-0,51.884l14.197,-0l-0,-27.197c-0,-5.284 0.866,-9.081 2.6,-11.391c1.731,-2.307 4.532,-3.46 8.398,-3.46c3.398,-0 5.765,1.053 7.099,3.161c1.332,2.107 1.999,5.303 1.999,9.583l0,29.305l14.199,-0l-0,-31.915c-0,-3.211 -0.285,-6.138 -0.851,-8.782c-0.568,-2.642 -1.549,-4.882 -2.949,-6.723Zm38.993,5.068l0.001,-9.533l-10.398,-0l-0,-15.556l-14.199,0l0,15.556l-8.599,-0l0,9.533l8.599,0l0,30.608c0,2.61 0.433,4.718 1.3,6.324c0.866,1.605 2.05,2.845 3.549,3.713c1.5,0.869 3.232,1.454 5.199,1.755c1.967,0.302 4.05,0.452 6.25,0.452c1.4,0 2.833,-0.034 4.299,-0.1c1.464,-0.067 2.799,-0.2 3.999,-0.401l0,-11.04c-0.668,0.136 -1.367,0.235 -2.1,0.302c-0.735,0.068 -1.5,0.101 -2.299,0.101c-2.4,-0 -4,-0.401 -4.8,-1.206c-0.801,-0.802 -1.199,-2.407 -1.199,-4.817l-0,-25.691l10.398,0Zm-224.56,-0.953c-0.936,-2.374 -2.236,-4.299 -3.9,-5.771c-1.668,-1.472 -3.667,-2.542 -5.999,-3.212c-2.334,-0.666 -4.867,-1.003 -7.599,-1.003c-3.599,-0 -6.716,0.872 -9.348,2.61c-2.635,1.739 -4.717,3.747 -6.25,6.022c-1.401,-3.213 -3.451,-5.453 -6.149,-6.724c-2.699,-1.272 -5.683,-1.908 -8.948,-1.908c-3.399,-0 -6.417,0.737 -9.049,2.208c-2.634,1.472 -4.883,3.547 -6.749,6.222l-0.201,-0l0,-7.024l-13.397,-0l-0,51.885l14.197,-0l0,-30.107c0,-2.542 0.366,-4.6 1.101,-6.172c0.733,-1.571 1.615,-2.776 2.65,-3.613c1.033,-0.836 2.099,-1.405 3.199,-1.706c1.101,-0.3 1.983,-0.45 2.65,-0.45c2.264,-0 3.982,0.384 5.149,1.153c1.166,0.769 1.999,1.791 2.5,3.062c0.501,1.27 0.782,2.658 0.85,4.164c0.066,1.504 0.1,3.026 0.1,4.566l-0,29.102l14.199,-0l-0,-28.902c-0,-1.606 0.115,-3.195 0.349,-4.767c0.232,-1.572 0.7,-2.977 1.4,-4.216c0.7,-1.237 1.665,-2.241 2.9,-3.01c1.231,-0.769 2.848,-1.153 4.848,-1.153c2,-0 3.582,0.333 4.749,1.002c1.166,0.67 2.05,1.574 2.651,2.711c0.599,1.138 0.965,2.475 1.099,4.013c0.132,1.54 0.2,3.179 0.2,4.918l0,29.405l14.198,-0l-0,-34.724c-0,-3.346 -0.468,-6.204 -1.4,-8.581Zm53.84,-3.461c-2.033,-2.208 -4.317,-3.847 -6.849,-4.919c-2.533,-1.069 -5.098,-1.605 -7.698,-1.605c-3.2,-0 -6.283,0.619 -9.249,1.857c-2.965,1.239 -5.316,3.197 -7.048,5.871l-0.201,-0l0,-26.093l-14.198,-0l0,71.654l13.499,-0l-0,-6.625l0.2,0c1.533,2.879 3.8,4.919 6.799,6.123c2.999,1.203 6.398,1.807 10.198,1.807c2.599,-0 5.165,-0.536 7.698,-1.606c2.532,-1.07 4.816,-2.711 6.849,-4.917c2.033,-2.207 3.683,-5.034 4.95,-8.48c1.267,-3.445 1.9,-7.543 1.9,-12.295c0,-4.749 -0.633,-8.846 -1.9,-12.292c-1.267,-3.447 -2.917,-6.273 -4.95,-8.48Zm-8.048,27.095c-0.467,2.006 -1.2,3.78 -2.2,5.319c-1,1.539 -2.248,2.759 -3.749,3.663c-1.5,0.903 -3.317,1.355 -5.449,1.355c-2.067,-0 -3.867,-0.452 -5.399,-1.355c-1.534,-0.904 -2.801,-2.124 -3.799,-3.663c-1,-1.539 -1.735,-3.312 -2.2,-5.319c-0.467,-2.008 -0.7,-4.08 -0.7,-6.222c-0,-2.21 0.233,-4.316 0.7,-6.323c0.465,-2.007 1.2,-3.779 2.2,-5.319c0.999,-1.539 2.265,-2.76 3.799,-3.663c1.532,-0.904 3.332,-1.354 5.399,-1.354c2.132,-0 3.949,0.45 5.449,1.354c1.501,0.904 2.75,2.124 3.749,3.663c1.001,1.54 1.734,3.312 2.2,5.319c0.466,2.007 0.699,4.114 0.699,6.323c0,2.142 -0.233,4.214 -0.699,6.222Zm34.494,-51.984l-14.199,-0l0,11.741l14.199,-0l-0,-11.741Zm-0,19.77l-14.199,-0l0,51.884l14.199,0l-0,-51.884Z" style="fill:#0249e5;"/><path d="M56.254,72.694l9.298,-26.292l0.201,0l8.997,26.292l-18.496,0Zm1.498,-43.956l-26.996,71.656l15.798,-0l5.6,-15.957l26.696,-0l5.399,15.957l16.295,-0l-26.695,-71.656l-16.097,0Z" style="fill:#f6f9fc;fill-rule:nonzero;"/><path d="M225.024,80.723c-0.467,2.006 -1.2,3.78 -2.2,5.319c-1,1.539 -2.248,2.759 -3.749,3.663c-1.5,0.903 -3.317,1.355 -5.449,1.355c-2.067,-0 -3.867,-0.452 -5.399,-1.355c-1.534,-0.904 -2.801,-2.124 -3.799,-3.663c-1,-1.539 -1.735,-3.312 -2.2,-5.319c-0.467,-2.008 -0.7,-4.08 -0.7,-6.222c-0,-2.21 0.233,-4.316 0.7,-6.323c0.465,-2.007 1.2,-3.779 2.2,-5.319c0.999,-1.539 2.265,-2.76 3.799,-3.663c1.532,-0.904 3.332,-1.354 5.399,-1.354c2.132,-0 3.949,0.45 5.449,1.354c1.501,0.904 2.75,2.124 3.749,3.663c1.001,1.54 1.734,3.312 2.2,5.319c0.466,2.007 0.699,4.114 0.699,6.323c0,2.142 -0.233,4.214 -0.699,6.222m8.048,-27.095c-2.033,-2.208 -4.317,-3.847 -6.849,-4.919c-2.533,-1.069 -5.098,-1.605 -7.698,-1.605c-3.2,-0 -6.283,0.619 -9.249,1.857c-2.965,1.239 -5.316,3.197 -7.048,5.871l-0.201,-0l0,-26.093l-14.198,-0l0,71.654l13.499,-0l-0,-6.625l0.2,0c1.533,2.879 3.8,4.919 6.799,6.123c2.999,1.203 6.398,1.807 10.198,1.807c2.599,-0 5.165,-0.536 7.698,-1.606c2.532,-1.07 4.816,-2.711 6.849,-4.917c2.033,-2.207 3.683,-5.034 4.95,-8.48c1.267,-3.445 1.9,-7.543 1.9,-12.295c0,-4.749 -0.633,-8.846 -1.9,-12.292c-1.267,-3.447 -2.917,-6.273 -4.95,-8.48" style="fill:#f6f9fc;fill-rule:nonzero;"/><rect x="245.319" y="48.509" width="14.199" height="51.885" style="fill:#f6f9fc;"/><path d="M179.232,57.089c-0.936,-2.374 -2.236,-4.299 -3.9,-5.771c-1.668,-1.472 -3.667,-2.542 -5.999,-3.212c-2.334,-0.666 -4.867,-1.003 -7.599,-1.003c-3.599,-0 -6.716,0.872 -9.348,2.61c-2.635,1.739 -4.717,3.747 -6.25,6.022c-1.401,-3.213 -3.451,-5.453 -6.149,-6.724c-2.699,-1.272 -5.683,-1.908 -8.948,-1.908c-3.399,-0 -6.417,0.737 -9.049,2.208c-2.634,1.472 -4.883,3.547 -6.749,6.222l-0.201,-0l0,-7.024l-13.397,-0l-0,51.885l14.197,-0l0,-30.107c0,-2.542 0.366,-4.6 1.101,-6.172c0.733,-1.571 1.615,-2.776 2.65,-3.613c1.033,-0.836 2.099,-1.405 3.199,-1.706c1.101,-0.3 1.983,-0.45 2.65,-0.45c2.264,-0 3.982,0.384 5.149,1.153c1.166,0.769 1.999,1.791 2.5,3.062c0.501,1.27 0.782,2.658 0.85,4.164c0.066,1.504 0.1,3.026 0.1,4.566l-0,29.102l14.199,-0l-0,-28.902c-0,-1.606 0.115,-3.195 0.349,-4.767c0.232,-1.572 0.7,-2.977 1.4,-4.216c0.7,-1.237 1.665,-2.241 2.9,-3.01c1.231,-0.769 2.848,-1.153 4.848,-1.153c2,-0 3.582,0.333 4.749,1.002c1.166,0.67 2.05,1.574 2.651,2.711c0.599,1.138 0.965,2.475 1.099,4.013c0.132,1.54 0.2,3.179 0.2,4.918l0,29.405l14.198,-0l-0,-34.724c-0,-3.346 -0.468,-6.204 -1.4,-8.581" style="fill:#f6f9fc;fill-rule:nonzero;"/><path d="M364.799,52.974c-1.4,-1.839 -3.317,-3.277 -5.75,-4.316c-2.435,-1.035 -5.549,-1.555 -9.349,-1.555c-2.999,0 -5.932,0.687 -8.798,2.058c-2.865,1.372 -5.198,3.563 -6.998,6.574l-0.3,0l0,-7.226l-13.497,0l-0,51.884l14.197,-0l-0,-27.197c-0,-5.284 0.866,-9.081 2.6,-11.391c1.731,-2.307 4.532,-3.46 8.398,-3.46c3.398,-0 5.765,1.053 7.099,3.161c1.332,2.107 1.999,5.303 1.999,9.583l0,29.305l14.199,-0l-0,-31.915c-0,-3.211 -0.285,-6.138 -0.851,-8.782c-0.568,-2.642 -1.549,-4.882 -2.949,-6.723" style="fill:#f6f9fc;fill-rule:nonzero;"/><path d="M278.415,68.881c0.065,-1.003 0.283,-2.14 0.649,-3.413c0.366,-1.269 1,-2.475 1.9,-3.613c0.9,-1.135 2.099,-2.09 3.599,-2.858c1.501,-0.769 3.383,-1.154 5.65,-1.154c3.464,-0 6.049,0.935 7.749,2.809c1.699,1.873 2.881,4.616 3.548,8.229l-23.095,0Zm31.744,-12.345c-2.1,-2.876 -4.784,-5.169 -8.049,-6.875c-3.266,-1.705 -7.098,-2.559 -11.498,-2.559c-3.933,-0 -7.515,0.703 -10.748,2.108c-3.234,1.406 -6.016,3.33 -8.348,5.771c-2.334,2.445 -4.134,5.336 -5.399,8.682c-1.268,3.346 -1.9,6.959 -1.9,10.838c0,4.015 0.616,7.694 1.85,11.039c1.232,3.347 2.982,6.223 5.249,8.631c2.265,2.409 5.032,4.265 8.298,5.571c3.265,1.304 6.932,1.957 10.998,1.957c5.865,-0 10.864,-1.337 14.998,-4.014c4.132,-2.675 7.198,-7.126 9.198,-13.348l-12.497,-0c-0.467,1.606 -1.735,3.127 -3.799,4.566c-2.067,1.438 -4.534,2.157 -7.4,2.157c-4,-0 -7.066,-1.037 -9.199,-3.112c-2.134,-2.072 -3.299,-5.418 -3.498,-10.034l37.294,-0c0.265,-4.015 -0.067,-7.861 -1,-11.543c-0.933,-3.678 -2.45,-6.957 -4.55,-9.835" style="fill:#f6f9fc;fill-rule:nonzero;"/><path d="M403.792,58.042l0.001,-9.533l-10.398,-0l-0,-15.556l-14.199,0l0,15.556l-8.599,-0l0,9.533l8.599,0l0,30.608c0,2.61 0.433,4.718 1.3,6.324c0.866,1.605 2.05,2.845 3.549,3.713c1.5,0.869 3.232,1.454 5.199,1.755c1.967,0.302 4.05,0.452 6.25,0.452c1.4,0 2.833,-0.034 4.299,-0.1c1.464,-0.067 2.799,-0.2 3.999,-0.401l0,-11.04c-0.668,0.136 -1.367,0.235 -2.1,0.302c-0.735,0.068 -1.5,0.101 -2.299,0.101c-2.4,-0 -4,-0.401 -4.8,-1.206c-0.801,-0.802 -1.199,-2.407 -1.199,-4.817l-0,-25.691l10.398,0Z" style="fill:#f6f9fc;fill-rule:nonzero;"/><rect x="245.319" y="28.739" width="14.199" height="11.741" style="fill:#f6f9fc;"/></g></svg>