<?xml version="1.0" encoding="UTF-8" standalone="no"?><!DOCTYPE svg PUBLIC "-//W3C//DTD SVG 1.1//EN" "http://www.w3.org/Graphics/SVG/1.1/DTD/svg11.dtd"><svg width="100%" height="100%" viewBox="0 0 435 164" version="1.1" xmlns="http://www.w3.org/2000/svg" xmlns:xlink="http://www.w3.org/1999/xlink" xml:space="preserve" xmlns:serif="http://www.serif.com/" style="fill-rule:evenodd;clip-rule:evenodd;stroke-linejoin:round;stroke-miterlimit:2;"><rect id="Artboard1" x="0" y="0" width="434.179" height="163.449" style="fill:none;"/><g id="Artboard11" serif:id="Artboard1"><path d="M432.532,0.722l-0,161.306l-431.161,-0l0,-161.306l431.161,-0Zm-253.205,70.446c-0.936,-2.374 -2.236,-4.298 -3.9,-5.771c-1.668,-1.472 -3.667,-2.542 -5.999,-3.212c-2.334,-0.666 -4.867,-1.003 -7.599,-1.003c-3.599,-0 -6.716,0.872 -9.348,2.61c-2.635,1.739 -4.717,3.747 -6.25,6.022c-1.401,-3.213 -3.451,-5.453 -6.149,-6.724c-2.699,-1.272 -5.683,-1.908 -8.948,-1.908c-3.399,-0 -6.417,0.737 -9.049,2.208c-2.634,1.472 -4.883,3.547 -6.749,6.222l-0.201,-0l0,-7.024l-13.397,0l-0,51.885l14.197,-0l0,-30.107c0,-2.541 0.366,-4.6 1.101,-6.171c0.733,-1.572 1.615,-2.777 2.65,-3.614c1.033,-0.836 2.099,-1.405 3.199,-1.706c1.101,-0.3 1.983,-0.45 2.65,-0.45c2.264,-0 3.982,0.385 5.149,1.153c1.166,0.769 1.999,1.791 2.5,3.062c0.501,1.27 0.782,2.658 0.85,4.164c0.066,1.504 0.1,3.026 0.1,4.566l-0,29.102l14.199,-0l-0,-28.902c-0,-1.606 0.115,-3.195 0.349,-4.767c0.232,-1.571 0.7,-2.977 1.4,-4.216c0.7,-1.237 1.665,-2.241 2.9,-3.01c1.231,-0.768 2.848,-1.153 4.848,-1.153c2,-0 3.582,0.333 4.749,1.002c1.166,0.67 2.05,1.574 2.651,2.711c0.599,1.138 0.965,2.475 1.099,4.013c0.132,1.54 0.2,3.179 0.2,4.918l0,29.405l14.198,-0l-0,-34.723c-0,-3.347 -0.468,-6.205 -1.4,-8.582Zm53.84,-3.461c-2.033,-2.208 -4.317,-3.847 -6.849,-4.919c-2.533,-1.069 -5.098,-1.605 -7.698,-1.605c-3.2,-0 -6.283,0.619 -9.249,1.858c-2.965,1.238 -5.316,3.196 -7.048,5.87l-0.201,0l0,-26.093l-14.198,-0l0,71.654l13.499,-0l-0,-6.624l0.199,-0c1.534,2.878 3.801,4.918 6.8,6.122c2.999,1.203 6.398,1.807 10.198,1.807c2.599,-0 5.165,-0.535 7.698,-1.605c2.532,-1.071 4.816,-2.712 6.849,-4.918c2.033,-2.207 3.683,-5.034 4.95,-8.48c1.267,-3.445 1.9,-7.543 1.9,-12.294c0,-4.75 -0.633,-8.847 -1.9,-12.293c-1.267,-3.446 -2.917,-6.273 -4.95,-8.48Zm-8.048,27.096c-0.467,2.005 -1.2,3.779 -2.2,5.318c-1,1.539 -2.248,2.76 -3.749,3.663c-1.5,0.903 -3.317,1.355 -5.449,1.355c-2.067,-0 -3.867,-0.452 -5.399,-1.355c-1.534,-0.903 -2.801,-2.124 -3.799,-3.663c-1,-1.539 -1.735,-3.312 -2.2,-5.318c-0.467,-2.008 -0.701,-4.081 -0.701,-6.223c0,-2.209 0.234,-4.316 0.701,-6.323c0.465,-2.007 1.2,-3.779 2.2,-5.319c0.999,-1.538 2.265,-2.76 3.799,-3.663c1.532,-0.904 3.332,-1.354 5.399,-1.354c2.132,-0 3.949,0.45 5.449,1.354c1.501,0.904 2.75,2.125 3.749,3.663c1.001,1.54 1.734,3.312 2.2,5.319c0.466,2.007 0.699,4.115 0.699,6.323c0,2.142 -0.233,4.215 -0.699,6.223Zm139.775,-27.75c-1.4,-1.839 -3.317,-3.277 -5.75,-4.316c-2.435,-1.035 -5.549,-1.555 -9.349,-1.555c-2.999,0 -5.932,0.687 -8.798,2.058c-2.865,1.373 -5.198,3.563 -6.998,6.574l-0.3,0l0,-7.226l-13.497,0l-0,51.884l14.196,-0l0,-27.197c0,-5.284 0.867,-9.081 2.6,-11.391c1.732,-2.307 4.533,-3.46 8.399,-3.46c3.398,-0 5.765,1.053 7.099,3.161c1.332,2.107 1.999,5.303 1.999,9.583l0,29.305l14.199,-0l-0,-31.914c-0,-3.212 -0.285,-6.139 -0.851,-8.783c-0.568,-2.641 -1.549,-4.882 -2.949,-6.723Zm38.993,5.068l0.001,-9.533l-10.398,-0l-0,-15.556l-14.199,0l0,15.556l-8.599,-0l0,9.533l8.599,0l0,30.608c0,2.61 0.433,4.718 1.3,6.324c0.865,1.606 2.05,2.845 3.549,3.714c1.5,0.868 3.232,1.453 5.199,1.755c1.967,0.301 4.05,0.452 6.25,0.452c1.4,-0 2.833,-0.035 4.299,-0.101c1.464,-0.067 2.799,-0.2 3.999,-0.401l0,-11.04c-0.668,0.136 -1.367,0.235 -2.1,0.302c-0.735,0.068 -1.5,0.101 -2.299,0.101c-2.4,-0 -4,-0.401 -4.8,-1.206c-0.801,-0.802 -1.199,-2.407 -1.199,-4.816l-0,-25.692l10.398,0Zm-144.274,-29.303l-14.199,-0l0,11.741l14.199,-0l-0,-11.741Zm50.641,27.797c-2.1,-2.875 -4.784,-5.169 -8.049,-6.875c-3.266,-1.705 -7.098,-2.559 -11.498,-2.559c-3.933,-0 -7.515,0.703 -10.748,2.108c-3.234,1.406 -6.016,3.33 -8.348,5.771c-2.334,2.445 -4.134,5.336 -5.399,8.682c-1.268,3.346 -1.9,6.959 -1.9,10.838c0,4.015 0.616,7.694 1.85,11.039c1.232,3.347 2.982,6.223 5.249,8.631c2.265,2.409 5.032,4.265 8.298,5.571c3.265,1.304 6.932,1.957 10.998,1.957c5.865,-0 10.864,-1.337 14.998,-4.014c4.132,-2.675 7.198,-7.126 9.198,-13.348l-12.497,-0c-0.467,1.606 -1.735,3.128 -3.799,4.566c-2.067,1.438 -4.534,2.157 -7.4,2.157c-4,-0 -7.066,-1.037 -9.199,-3.112c-2.134,-2.072 -3.299,-5.418 -3.498,-10.034l37.294,-0c0.265,-4.015 -0.067,-7.861 -1,-11.543c-0.933,-3.678 -2.45,-6.957 -4.55,-9.835Zm-31.744,12.345c0.065,-1.003 0.283,-2.14 0.649,-3.412c0.366,-1.27 1,-2.476 1.9,-3.614c0.9,-1.135 2.099,-2.09 3.599,-2.858c1.501,-0.769 3.383,-1.154 5.65,-1.154c3.464,0 6.049,0.935 7.749,2.809c1.699,1.873 2.881,4.616 3.548,8.229l-23.095,0Zm-220.663,-40.143l-26.996,71.656l15.798,-0l5.6,-15.957l26.696,-0l5.399,15.957l16.295,-0l-26.695,-71.656l-16.097,0Zm-1.498,43.956l9.298,-26.292l0.201,0l8.997,26.292l-18.496,0Zm203.264,-24.185l-14.199,-0l0,51.885l14.199,-0l-0,-51.885Z" style="fill:#0249e5;"/><path d="M56.349,86.773l9.298,-26.292l0.201,0l8.997,26.292l-18.496,0Zm1.498,-43.956l-26.996,71.656l15.798,-0l5.6,-15.957l26.696,-0l5.399,15.957l16.295,-0l-26.695,-71.656l-16.097,0Z" style="fill:#f6f9fc;fill-rule:nonzero;"/><path d="M225.119,94.803c-0.467,2.005 -1.2,3.779 -2.2,5.318c-1,1.539 -2.248,2.76 -3.749,3.663c-1.5,0.903 -3.317,1.355 -5.449,1.355c-2.067,-0 -3.867,-0.452 -5.399,-1.355c-1.534,-0.903 -2.801,-2.124 -3.799,-3.663c-1,-1.539 -1.735,-3.312 -2.2,-5.318c-0.467,-2.008 -0.701,-4.081 -0.701,-6.223c0,-2.209 0.234,-4.316 0.701,-6.323c0.465,-2.007 1.2,-3.779 2.2,-5.319c0.999,-1.538 2.265,-2.76 3.799,-3.663c1.532,-0.904 3.332,-1.354 5.399,-1.354c2.132,-0 3.949,0.45 5.449,1.354c1.501,0.904 2.75,2.125 3.749,3.663c1.001,1.54 1.734,3.312 2.2,5.319c0.466,2.007 0.699,4.115 0.699,6.323c0,2.142 -0.233,4.215 -0.699,6.223m8.048,-27.096c-2.033,-2.208 -4.317,-3.847 -6.849,-4.919c-2.533,-1.069 -5.098,-1.605 -7.698,-1.605c-3.2,-0 -6.283,0.619 -9.249,1.858c-2.965,1.238 -5.316,3.196 -7.048,5.87l-0.201,0l0,-26.093l-14.198,-0l0,71.654l13.499,-0l-0,-6.624l0.199,-0c1.534,2.878 3.801,4.918 6.8,6.122c2.999,1.203 6.398,1.807 10.198,1.807c2.599,-0 5.165,-0.535 7.698,-1.605c2.532,-1.071 4.816,-2.712 6.849,-4.918c2.033,-2.207 3.683,-5.034 4.95,-8.48c1.267,-3.445 1.9,-7.543 1.9,-12.294c0,-4.75 -0.633,-8.847 -1.9,-12.293c-1.267,-3.446 -2.917,-6.273 -4.95,-8.48" style="fill:#f6f9fc;fill-rule:nonzero;"/><rect x="245.414" y="62.588" width="14.199" height="51.885" style="fill:#f6f9fc;"/><path d="M179.327,71.168c-0.936,-2.374 -2.236,-4.298 -3.9,-5.771c-1.668,-1.472 -3.667,-2.542 -5.999,-3.212c-2.334,-0.666 -4.867,-1.003 -7.599,-1.003c-3.599,-0 -6.716,0.872 -9.348,2.61c-2.635,1.739 -4.717,3.747 -6.25,6.022c-1.401,-3.213 -3.451,-5.453 -6.149,-6.724c-2.699,-1.272 -5.683,-1.908 -8.948,-1.908c-3.399,-0 -6.417,0.737 -9.049,2.208c-2.634,1.472 -4.883,3.547 -6.749,6.222l-0.201,-0l0,-7.024l-13.397,0l-0,51.885l14.197,-0l0,-30.107c0,-2.541 0.366,-4.6 1.101,-6.171c0.733,-1.572 1.615,-2.777 2.65,-3.614c1.033,-0.836 2.099,-1.405 3.199,-1.706c1.101,-0.3 1.983,-0.45 2.65,-0.45c2.264,-0 3.982,0.385 5.149,1.153c1.166,0.769 1.999,1.791 2.5,3.062c0.501,1.27 0.782,2.658 0.85,4.164c0.066,1.504 0.1,3.026 0.1,4.566l-0,29.102l14.199,-0l-0,-28.902c-0,-1.606 0.115,-3.195 0.349,-4.767c0.232,-1.571 0.7,-2.977 1.4,-4.216c0.7,-1.237 1.665,-2.241 2.9,-3.01c1.231,-0.768 2.848,-1.153 4.848,-1.153c2,-0 3.582,0.333 4.749,1.002c1.166,0.67 2.05,1.574 2.651,2.711c0.599,1.138 0.965,2.475 1.099,4.013c0.132,1.54 0.2,3.179 0.2,4.918l0,29.405l14.198,-0l-0,-34.723c-0,-3.347 -0.468,-6.205 -1.4,-8.582" style="fill:#f6f9fc;fill-rule:nonzero;"/><path d="M364.894,67.053c-1.4,-1.839 -3.317,-3.277 -5.75,-4.316c-2.435,-1.035 -5.549,-1.555 -9.349,-1.555c-2.999,0 -5.932,0.687 -8.798,2.058c-2.865,1.373 -5.198,3.563 -6.998,6.574l-0.3,0l0,-7.226l-13.497,0l-0,51.884l14.196,-0l0,-27.197c0,-5.284 0.867,-9.081 2.6,-11.391c1.732,-2.307 4.533,-3.46 8.399,-3.46c3.398,-0 5.765,1.053 7.099,3.161c1.332,2.107 1.999,5.303 1.999,9.583l0,29.305l14.199,-0l-0,-31.914c-0,-3.212 -0.285,-6.139 -0.851,-8.783c-0.568,-2.641 -1.549,-4.882 -2.949,-6.723" style="fill:#f6f9fc;fill-rule:nonzero;"/><path d="M278.51,82.96c0.065,-1.003 0.283,-2.14 0.649,-3.412c0.366,-1.27 1,-2.476 1.9,-3.614c0.9,-1.135 2.099,-2.09 3.599,-2.858c1.501,-0.769 3.383,-1.154 5.65,-1.154c3.464,0 6.049,0.935 7.749,2.809c1.699,1.873 2.881,4.616 3.548,8.229l-23.095,0Zm31.744,-12.345c-2.1,-2.875 -4.784,-5.169 -8.049,-6.875c-3.266,-1.705 -7.098,-2.559 -11.498,-2.559c-3.933,-0 -7.515,0.703 -10.748,2.108c-3.234,1.406 -6.016,3.33 -8.348,5.771c-2.334,2.445 -4.134,5.336 -5.399,8.682c-1.268,3.346 -1.9,6.959 -1.9,10.838c0,4.015 0.616,7.694 1.85,11.039c1.232,3.347 2.982,6.223 5.249,8.631c2.265,2.409 5.032,4.265 8.298,5.571c3.265,1.304 6.932,1.957 10.998,1.957c5.865,-0 10.864,-1.337 14.998,-4.014c4.132,-2.675 7.198,-7.126 9.198,-13.348l-12.497,-0c-0.467,1.606 -1.735,3.128 -3.799,4.566c-2.067,1.438 -4.534,2.157 -7.4,2.157c-4,-0 -7.066,-1.037 -9.199,-3.112c-2.134,-2.072 -3.299,-5.418 -3.498,-10.034l37.294,-0c0.265,-4.015 -0.067,-7.861 -1,-11.543c-0.933,-3.678 -2.45,-6.957 -4.55,-9.835" style="fill:#f6f9fc;fill-rule:nonzero;"/><path d="M403.887,72.121l0.001,-9.533l-10.398,-0l-0,-15.556l-14.199,0l0,15.556l-8.599,-0l0,9.533l8.599,0l0,30.608c0,2.61 0.433,4.718 1.3,6.324c0.865,1.606 2.05,2.845 3.549,3.714c1.5,0.868 3.232,1.453 5.199,1.755c1.967,0.301 4.05,0.452 6.25,0.452c1.4,-0 2.833,-0.035 4.299,-0.101c1.464,-0.067 2.799,-0.2 3.999,-0.401l0,-11.04c-0.668,0.136 -1.367,0.235 -2.1,0.302c-0.735,0.068 -1.5,0.101 -2.299,0.101c-2.4,-0 -4,-0.401 -4.8,-1.206c-0.801,-0.802 -1.199,-2.407 -1.199,-4.816l-0,-25.692l10.398,0Z" style="fill:#f6f9fc;fill-rule:nonzero;"/><rect x="245.414" y="42.818" width="14.199" height="11.741" style="fill:#f6f9fc;"/></g></svg>