<?xml version="1.0" encoding="UTF-8" standalone="no"?><!DOCTYPE svg PUBLIC "-//W3C//DTD SVG 1.1//EN" "http://www.w3.org/Graphics/SVG/1.1/DTD/svg11.dtd"><svg width="100%" height="100%" viewBox="0 0 240 40" version="1.1" xmlns="http://www.w3.org/2000/svg" xmlns:xlink="http://www.w3.org/1999/xlink" xml:space="preserve" xmlns:serif="http://www.serif.com/" style="fill-rule:evenodd;clip-rule:evenodd;stroke-linejoin:round;stroke-miterlimit:2;"><g><path d="M14.429,24.306l5.046,-14.27l0.109,-0l4.884,14.27l-10.039,0Zm0.813,-23.858l-14.652,38.892l8.574,0l3.04,-8.661l14.489,0l2.931,8.661l8.844,0l-14.489,-38.892l-8.737,0Z" style="fill:#0249e5;fill-rule:nonzero;"/><path d="M106.032,28.664c-0.254,1.088 -0.652,2.052 -1.194,2.887c-0.543,0.835 -1.221,1.497 -2.035,1.988c-0.815,0.49 -1.8,0.735 -2.958,0.735c-1.122,0 -2.099,-0.245 -2.93,-0.735c-0.833,-0.491 -1.52,-1.153 -2.063,-1.988c-0.542,-0.835 -0.941,-1.798 -1.193,-2.887c-0.254,-1.09 -0.381,-2.215 -0.381,-3.378c0,-1.199 0.127,-2.342 0.381,-3.431c0.252,-1.089 0.651,-2.051 1.193,-2.887c0.543,-0.835 1.23,-1.498 2.063,-1.989c0.831,-0.49 1.808,-0.734 2.93,-0.734c1.158,-0 2.143,0.244 2.958,0.734c0.814,0.491 1.492,1.154 2.035,1.989c0.543,0.836 0.94,1.798 1.194,2.887c0.252,1.089 0.379,2.233 0.379,3.431c0,1.163 -0.127,2.288 -0.379,3.378m4.368,-14.707c-1.104,-1.198 -2.343,-2.088 -3.718,-2.669c-1.374,-0.581 -2.766,-0.872 -4.178,-0.872c-1.737,0 -3.41,0.337 -5.02,1.009c-1.609,0.672 -2.885,1.734 -3.825,3.186l-0.109,-0l-0,-14.163l-7.706,0l-0,38.892l7.326,-0l-0,-3.596l0.108,0c0.833,1.563 2.063,2.67 3.691,3.323c1.628,0.654 3.473,0.981 5.535,0.981c1.411,0 2.804,-0.29 4.178,-0.871c1.375,-0.581 2.614,-1.472 3.718,-2.669c1.103,-1.198 1.999,-2.732 2.686,-4.603c0.688,-1.87 1.032,-4.094 1.032,-6.673c-0,-2.578 -0.344,-4.801 -1.032,-6.672c-0.687,-1.871 -1.583,-3.405 -2.686,-4.603" style="fill:#0249e5;fill-rule:nonzero;"/><rect x="117.047" y="11.179" width="7.707" height="28.161" style="fill:#0249e5;"/><path d="M81.177,15.836c-0.508,-1.289 -1.213,-2.333 -2.117,-3.132c-0.905,-0.799 -1.99,-1.38 -3.256,-1.744c-1.266,-0.361 -2.641,-0.544 -4.124,-0.544c-1.953,-0 -3.646,0.473 -5.074,1.416c-1.43,0.945 -2.56,2.034 -3.392,3.269c-0.76,-1.744 -1.873,-2.96 -3.338,-3.65c-1.465,-0.69 -3.084,-1.035 -4.856,-1.035c-1.845,-0 -3.483,0.4 -4.912,1.198c-1.43,0.799 -2.65,1.926 -3.663,3.377l-0.109,0l0,-3.812l-7.272,0l0,28.161l7.706,0l0,-16.341c0,-1.379 0.199,-2.496 0.598,-3.349c0.398,-0.853 0.876,-1.507 1.438,-1.961c0.561,-0.454 1.139,-0.763 1.736,-0.926c0.598,-0.163 1.077,-0.245 1.439,-0.245c1.229,0 2.161,0.209 2.794,0.626c0.633,0.417 1.085,0.972 1.358,1.662c0.271,0.689 0.424,1.443 0.461,2.26c0.035,0.817 0.054,1.642 0.054,2.478l-0,15.796l7.706,-0l0,-15.687c0,-0.872 0.063,-1.734 0.19,-2.587c0.126,-0.853 0.38,-1.616 0.76,-2.289c0.38,-0.671 0.904,-1.216 1.574,-1.633c0.668,-0.418 1.546,-0.627 2.631,-0.627c1.086,0 1.945,0.182 2.578,0.545c0.633,0.363 1.113,0.854 1.439,1.471c0.325,0.618 0.524,1.343 0.596,2.178c0.072,0.836 0.109,1.726 0.109,2.669l-0,15.96l7.706,0l-0,-18.846c-0,-1.816 -0.254,-3.368 -0.76,-4.658" style="fill:#0249e5;fill-rule:nonzero;"/><path d="M181.897,13.603c-0.76,-0.999 -1.801,-1.779 -3.121,-2.343c-1.322,-0.562 -3.012,-0.844 -5.074,-0.844c-1.628,-0 -3.22,0.373 -4.776,1.117c-1.555,0.745 -2.821,1.934 -3.798,3.568l-0.163,0l0,-3.922l-7.326,0l0,28.161l7.706,-0l-0,-14.762c-0,-2.867 0.47,-4.929 1.411,-6.182c0.94,-1.252 2.46,-1.878 4.558,-1.878c1.845,-0 3.129,0.571 3.853,1.715c0.723,1.144 1.086,2.879 1.086,5.202l-0,15.905l7.706,0l0,-17.322c0,-1.743 -0.154,-3.331 -0.462,-4.766c-0.308,-1.434 -0.841,-2.65 -1.6,-3.649" style="fill:#0249e5;fill-rule:nonzero;"/><path d="M135.01,22.236c0.036,-0.544 0.154,-1.161 0.353,-1.852c0.198,-0.689 0.542,-1.343 1.031,-1.961c0.488,-0.616 1.139,-1.135 1.954,-1.552c0.814,-0.417 1.835,-0.626 3.066,-0.626c1.88,0 3.283,0.508 4.206,1.525c0.922,1.017 1.564,2.505 1.926,4.466l-12.536,0Zm17.23,-6.7c-1.14,-1.561 -2.597,-2.806 -4.369,-3.731c-1.772,-0.926 -3.853,-1.39 -6.241,-1.39c-2.134,0 -4.078,0.382 -5.833,1.144c-1.755,0.763 -3.266,1.808 -4.531,3.133c-1.267,1.327 -2.244,2.896 -2.931,4.712c-0.688,1.816 -1.031,3.777 -1.031,5.882c0,2.18 0.335,4.177 1.004,5.992c0.669,1.817 1.619,3.378 2.849,4.685c1.229,1.308 2.732,2.315 4.504,3.024c1.772,0.707 3.763,1.062 5.969,1.062c3.184,-0 5.897,-0.726 8.141,-2.179c2.243,-1.452 3.907,-3.868 4.992,-7.245l-6.783,0c-0.253,0.872 -0.941,1.698 -2.062,2.479c-1.122,0.78 -2.461,1.17 -4.016,1.17c-2.171,0 -3.835,-0.563 -4.993,-1.689c-1.158,-1.124 -1.791,-2.941 -1.899,-5.446l20.242,-0c0.144,-2.179 -0.036,-4.267 -0.543,-6.265c-0.506,-1.997 -1.329,-3.776 -2.469,-5.338" style="fill:#0249e5;fill-rule:nonzero;"/><path d="M203.061,16.353l0,-5.174l-5.644,-0l0,-8.443l-7.706,0l-0,8.443l-4.667,-0l-0,5.174l4.667,0l-0,16.613c-0,1.417 0.235,2.561 0.705,3.433c0.47,0.871 1.113,1.544 1.927,2.015c0.814,0.472 1.754,0.789 2.822,0.953c1.067,0.164 2.198,0.245 3.392,0.245c0.76,0 1.537,-0.019 2.333,-0.054c0.795,-0.037 1.519,-0.109 2.171,-0.218l-0,-5.992c-0.363,0.074 -0.742,0.127 -1.14,0.164c-0.399,0.037 -0.814,0.054 -1.248,0.054c-1.302,0 -2.171,-0.217 -2.605,-0.654c-0.435,-0.435 -0.651,-1.306 -0.651,-2.614l-0,-13.945l5.644,0Z" style="fill:#0249e5;fill-rule:nonzero;"/><rect x="117.047" y="0.448" width="7.707" height="6.373" style="fill:#0249e5;"/></g></svg>