<?xml version="1.0" encoding="UTF-8" standalone="no"?><!DOCTYPE svg PUBLIC "-//W3C//DTD SVG 1.1//EN" "http://www.w3.org/Graphics/SVG/1.1/DTD/svg11.dtd"><svg width="100%" height="100%" viewBox="0 0 40 40" version="1.1" xmlns="http://www.w3.org/2000/svg" xmlns:xlink="http://www.w3.org/1999/xlink" xml:space="preserve" xmlns:serif="http://www.serif.com/" style="fill-rule:evenodd;clip-rule:evenodd;stroke-linejoin:round;stroke-miterlimit:2;"><path d="M9.691,3.078c-4.923,-0 -8.234,2.902 -9.241,3.915c-0.209,0.211 -0.323,0.498 -0.323,0.794l0,25.257c0,0.485 0.563,0.738 0.935,0.429c4.032,-3.342 8.912,-3.505 8.912,-3.505c6.912,-0 9.47,6.345 9.47,6.345l-0,-25.566c-0,-7.29 -9.753,-7.67 -9.753,-7.67" style="fill:#0b2540;fill-rule:nonzero;"/><path d="M39.572,6.994c-1.007,-1.014 -4.318,-3.916 -9.24,-3.916c0,0 -9.752,0.378 -9.752,7.67l-0,25.566c-0,-0 2.556,-6.345 9.469,-6.345c-0,-0 4.88,0.164 8.911,3.504c0.373,0.309 0.936,0.055 0.936,-0.429l-0,-25.257c-0,-0.296 -0.115,-0.582 -0.324,-0.793" style="fill:#0b2540;fill-rule:nonzero;"/></svg>