<?xml version="1.0" encoding="UTF-8" standalone="no"?><!DOCTYPE svg PUBLIC "-//W3C//DTD SVG 1.1//EN" "http://www.w3.org/Graphics/SVG/1.1/DTD/svg11.dtd"><svg width="100%" height="100%" viewBox="0 0 40 40" version="1.1" xmlns="http://www.w3.org/2000/svg" xmlns:xlink="http://www.w3.org/1999/xlink" xml:space="preserve" xmlns:serif="http://www.serif.com/" style="fill-rule:evenodd;clip-rule:evenodd;stroke-linejoin:round;stroke-miterlimit:2;"><path d="M39.476,16.243c0.247,2.403 0.247,4.435 0,6.468l-0.061,0.431c-0.062,0.493 -0.123,0.924 -0.185,1.417c-0.062,0.616 -0.185,1.232 -0.308,1.724l-0.061,0.185c-0.124,0.554 -0.247,1.047 -0.37,1.54c-0.062,0.37 -0.185,0.739 -0.308,1.109l-0.123,0.369c-0.123,0.37 -0.185,0.678 -0.308,0.986c-0.185,0.493 -0.308,0.924 -0.493,1.355c-0.123,0.308 -0.185,0.554 -0.308,0.801l-0.123,0.369c-0.739,1.848 -2.033,3.203 -3.696,4.003c-0.739,0.308 -1.478,0.616 -2.156,0.924c-0.554,0.185 -1.108,0.37 -1.539,0.493l-0.124,0.062c-0.554,0.184 -1.17,0.369 -1.724,0.492c-0.616,0.185 -1.171,0.308 -1.663,0.37c-0.739,0.123 -1.478,0.246 -2.156,0.308c-1.355,0.185 -2.587,0.246 -3.757,0.246c-0.801,0 -1.54,-0.061 -2.217,-0.123c-0.185,0 -0.432,-0.061 -0.616,-0.061c-0.493,-0 -0.986,-0.062 -1.479,-0.124c-0.677,-0.061 -1.293,-0.184 -1.786,-0.308l-0.246,-0.061c-0.555,-0.123 -1.047,-0.247 -1.602,-0.37c-0.369,-0.061 -0.739,-0.185 -1.108,-0.308l-0.37,-0.123c-0.308,-0.123 -0.616,-0.185 -0.924,-0.308c-0.431,-0.123 -0.924,-0.308 -1.355,-0.493c-0.37,-0.184 -0.801,-0.308 -1.17,-0.492c-1.663,-0.74 -2.956,-1.971 -3.757,-3.573c-0.308,-0.677 -0.555,-1.293 -0.863,-2.032c-0.246,-0.616 -0.431,-1.232 -0.615,-1.848c-0.185,-0.554 -0.308,-1.17 -0.493,-1.725c-0.123,-0.554 -0.247,-1.108 -0.37,-1.601c-0.123,-0.678 -0.246,-1.355 -0.308,-1.971c-0.123,-0.678 -0.185,-1.355 -0.246,-2.094c-0,-0.555 -0.062,-1.109 -0.062,-1.725l-0.061,-1.109l0.061,-0.924c0.062,-0.677 0.062,-1.601 0.185,-2.525c0.062,-0.985 0.246,-1.909 0.431,-2.71c0.185,-0.8 0.37,-1.601 0.616,-2.402c0.247,-0.862 0.555,-1.663 0.801,-2.341c0.185,-0.492 0.431,-1.231 0.801,-1.971c0.739,-1.601 2.032,-2.833 3.695,-3.572c0.123,-0 0.185,-0.062 0.308,-0.123c0.246,-0.123 0.493,-0.185 0.739,-0.308c0.431,-0.185 0.924,-0.308 1.355,-0.493l1.109,-0.37l1.293,-0.369l1.479,-0.37c0.369,-0.061 0.677,-0.123 1.047,-0.184c0.369,-0.062 0.8,-0.124 1.232,-0.185c0.246,-0.062 0.554,-0.062 0.862,-0.123l0.493,-0.062c0.924,-0.123 1.847,-0.185 2.895,-0.185c0.677,0 1.478,0 2.402,0.062c0.801,0.061 1.663,0.185 2.525,0.308c0.862,0.123 1.663,0.308 2.464,0.493c0.677,0.123 1.293,0.308 1.909,0.492c0.493,0.123 0.924,0.247 1.355,0.431l0.431,0.124c0.37,0.123 0.801,0.308 1.294,0.492c0.061,0.062 0.184,0.062 0.246,0.124c0.739,0.246 2.033,0.8 3.203,2.094c0.739,0.801 1.17,1.724 1.417,2.279l0.061,0.123c0.247,0.431 0.431,0.924 0.616,1.417c0.185,0.492 0.37,0.924 0.493,1.416l-0,0.062l0.37,1.293c0.184,0.493 0.246,0.986 0.369,1.417c0.123,0.616 0.246,1.293 0.37,1.909l0.184,1.478Z" style="fill:#0249e5;"/></svg>