<?xml version="1.0" encoding="UTF-8" standalone="no"?><!DOCTYPE svg PUBLIC "-//W3C//DTD SVG 1.1//EN" "http://www.w3.org/Graphics/SVG/1.1/DTD/svg11.dtd"><svg width="100%" height="100%" viewBox="0 0 167 167" version="1.1" xmlns="http://www.w3.org/2000/svg" xmlns:xlink="http://www.w3.org/1999/xlink" xml:space="preserve" xmlns:serif="http://www.serif.com/" style="fill-rule:evenodd;clip-rule:evenodd;stroke-linejoin:round;stroke-miterlimit:2;"><path d="M166.029,0.9l0,165.083l-165.1,0l0,-165.083l165.1,-0Zm-5.621,67.342l-0.733,-5.884c-0.25,-1.244 -0.499,-2.551 -0.748,-3.858c-0.242,-1.267 -0.483,-2.534 -0.723,-3.742c-0.232,-0.811 -0.41,-1.676 -0.61,-2.57c-0.223,-0.998 -0.474,-2.03 -0.861,-3.063l-1.47,-5.15l-0,-0.246c-0.221,-0.878 -0.49,-1.707 -0.786,-2.531c-0.364,-1.016 -0.77,-2.024 -1.177,-3.106c-0.394,-1.052 -0.789,-2.105 -1.222,-3.121c-0.373,-0.875 -0.775,-1.722 -1.228,-2.517l-0.246,-0.487c-0.539,-1.216 -1.302,-2.877 -2.37,-4.656c-0.871,-1.452 -1.946,-2.983 -3.267,-4.415c-0.292,-0.322 -0.585,-0.633 -0.879,-0.932c-0.969,-0.986 -1.953,-1.851 -2.926,-2.611c-0.339,-0.266 -0.678,-0.518 -1.014,-0.759c-0.663,-0.473 -1.317,-0.9 -1.955,-1.284c-0.698,-0.419 -1.376,-0.789 -2.024,-1.113c-0.761,-0.381 -1.481,-0.701 -2.144,-0.97c-0.663,-0.269 -1.27,-0.487 -1.804,-0.665c-0.246,-0.245 -0.733,-0.245 -0.979,-0.491c-0.505,-0.189 -0.993,-0.377 -1.464,-0.562c-0.703,-0.276 -1.37,-0.542 -2,-0.785c-0.592,-0.228 -1.153,-0.436 -1.682,-0.612l-1.717,-0.491c-0.483,-0.206 -0.965,-0.394 -1.454,-0.567c-0.623,-0.222 -1.256,-0.421 -1.909,-0.609c-0.652,-0.187 -1.325,-0.364 -2.028,-0.541c-0.631,-0.188 -1.262,-0.377 -1.897,-0.562c-0.917,-0.267 -1.842,-0.525 -2.788,-0.762c-0.947,-0.237 -1.914,-0.453 -2.915,-0.634c-0.701,-0.162 -1.401,-0.324 -2.104,-0.483c-0.582,-0.132 -1.165,-0.262 -1.751,-0.388c-0.936,-0.202 -1.879,-0.395 -2.837,-0.574c-1.019,-0.191 -2.054,-0.366 -3.113,-0.518c-0.769,-0.109 -1.538,-0.219 -2.305,-0.325c-0.489,-0.069 -0.977,-0.136 -1.464,-0.201c-0.982,-0.132 -1.958,-0.257 -2.919,-0.368c-1.143,-0.133 -2.267,-0.246 -3.362,-0.331c-0.628,-0.042 -1.242,-0.077 -1.842,-0.105c-0.696,-0.034 -1.374,-0.059 -2.032,-0.079c-1.028,-0.03 -2.01,-0.046 -2.944,-0.053c-0.963,-0.008 -1.877,-0.008 -2.74,-0.008c-0.851,-0 -1.682,0.01 -2.497,0.03c-0.627,0.016 -1.245,0.038 -1.855,0.066c-1.183,0.054 -2.338,0.132 -3.478,0.232c-1.242,0.109 -2.466,0.245 -3.691,0.409l-1.958,0.246c-0.46,0.09 -0.92,0.147 -1.367,0.195c-0.745,0.081 -1.455,0.139 -2.066,0.292c-1.717,0.246 -3.43,0.492 -4.9,0.738c-1.471,0.242 -2.696,0.487 -4.167,0.733l-5.883,1.471l-5.15,1.471l-4.409,1.471c-0.805,0.343 -1.663,0.634 -2.525,0.922c-0.977,0.326 -1.959,0.648 -2.871,1.04c-0.979,0.488 -1.958,0.734 -2.941,1.225c-0.488,0.246 -0.712,0.259 -1.225,0.488c-0.629,0.279 -1.245,0.577 -1.847,0.892c-0.483,0.252 -0.958,0.516 -1.423,0.791c-0.663,0.392 -1.307,0.806 -1.932,1.242c-0.447,0.312 -0.883,0.635 -1.309,0.969c-0.446,0.349 -0.881,0.71 -1.303,1.083c-0.866,0.764 -1.681,1.576 -2.443,2.435c-0.331,0.373 -0.652,0.755 -0.962,1.145c-0.708,0.889 -1.362,1.823 -1.958,2.799c-0.561,0.917 -1.071,1.871 -1.527,2.86c-0.22,0.44 -0.429,0.88 -0.628,1.317c-0.53,1.164 -0.988,2.304 -1.389,3.36c-0.455,1.196 -0.838,2.283 -1.171,3.169c-0.218,0.601 -0.449,1.227 -0.686,1.874c-0.448,1.222 -0.92,2.52 -1.38,3.877c-0.388,1.149 -0.769,2.34 -1.117,3.562c-0.168,0.545 -0.329,1.09 -0.484,1.635c-0.359,1.264 -0.686,2.528 -0.996,3.792c-0.338,1.378 -0.656,2.755 -0.974,4.131c-0.213,0.923 -0.426,1.888 -0.627,2.887c-0.254,1.263 -0.489,2.583 -0.681,3.946c-0.18,1.281 -0.322,2.601 -0.405,3.95c-0.126,0.946 -0.22,1.892 -0.294,2.82c-0.104,1.3 -0.168,2.567 -0.228,3.756c-0.063,1.265 -0.121,2.442 -0.215,3.474l-0.246,3.68l0.246,4.412c-0,1.098 0.049,2.147 0.103,3.169c0.067,1.258 0.142,2.475 0.142,3.694c0.12,1.43 0.239,2.803 0.387,4.145c0.155,1.418 0.342,2.803 0.593,4.188c0.076,0.766 0.177,1.556 0.295,2.363c0.133,0.914 0.287,1.85 0.45,2.795c0.154,0.889 0.317,1.786 0.48,2.684c0.22,0.879 0.44,1.807 0.66,2.763c0.271,1.176 0.541,2.393 0.81,3.612c0.162,0.484 0.312,0.98 0.456,1.483c0.508,1.786 0.931,3.656 1.507,5.379c0.26,0.869 0.52,1.737 0.792,2.606c0.263,0.84 0.536,1.681 0.829,2.521c0.258,0.742 0.533,1.485 0.829,2.227c0.372,0.894 0.722,1.743 1.063,2.566c0.391,0.943 0.77,1.854 1.159,2.763c0.388,0.91 0.785,1.819 1.211,2.759c0.366,0.732 0.758,1.445 1.175,2.138c0.375,0.623 0.77,1.229 1.186,1.819c0.662,0.941 1.375,1.839 2.136,2.692c0.568,0.637 1.162,1.248 1.783,1.833c0.628,0.592 1.283,1.158 1.963,1.696c0.966,0.764 1.983,1.472 3.05,2.122c1.162,0.708 2.382,1.346 3.657,1.912c0.414,0.208 0.847,0.396 1.288,0.575c1.129,0.458 2.312,0.861 3.366,1.388c0.751,0.322 1.549,0.644 2.353,0.945c1.034,0.388 2.078,0.741 3.043,1.017c0.68,0.271 1.359,0.467 2.039,0.672c0.545,0.164 1.091,0.334 1.636,0.553l1.471,0.488c0.758,0.253 1.517,0.507 2.275,0.727c0.713,0.206 1.425,0.383 2.138,0.502c0.684,0.151 1.345,0.303 1.998,0.455c0.763,0.178 1.515,0.357 2.278,0.535c0.683,0.16 1.376,0.32 2.094,0.481l0.984,0.241c0.55,0.139 1.14,0.277 1.764,0.41c0.753,0.16 1.555,0.313 2.397,0.447c0.938,0.151 1.925,0.279 2.947,0.373c0.582,0.071 1.165,0.144 1.748,0.21c0.667,0.075 1.334,0.143 2.001,0.192c0.711,0.053 1.421,0.085 2.13,0.085c0.738,-0 1.717,0.246 2.454,0.246c0.802,0.073 1.625,0.146 2.47,0.213c1.026,0.081 2.084,0.152 3.174,0.202c1.032,0.048 2.092,0.076 3.181,0.076c0.673,0 1.352,-0.005 2.036,-0.016c1.747,-0.028 3.532,-0.094 5.369,-0.212c1.209,-0.077 2.44,-0.176 3.696,-0.301c1.257,-0.124 2.539,-0.275 3.849,-0.454c0.693,-0.062 1.403,-0.141 2.124,-0.232c1.071,-0.135 2.168,-0.297 3.278,-0.472c1.05,-0.166 2.112,-0.343 3.173,-0.521c0.61,-0.076 1.243,-0.176 1.9,-0.299c0.729,-0.137 1.487,-0.303 2.274,-0.498c0.787,-0.195 1.603,-0.419 2.447,-0.674c0.723,-0.16 1.473,-0.347 2.232,-0.551c0.735,-0.199 1.478,-0.414 2.214,-0.637c0.821,-0.25 1.634,-0.51 2.417,-0.77l0.491,-0.246c0.576,-0.165 1.208,-0.358 1.877,-0.569c0.681,-0.214 1.4,-0.448 2.137,-0.691c0.693,-0.228 1.403,-0.465 2.111,-0.702c0.445,-0.202 0.896,-0.404 1.352,-0.606c1.097,-0.485 2.226,-0.97 3.372,-1.455c1.271,-0.538 2.563,-1.076 3.856,-1.614c0.441,-0.213 0.876,-0.436 1.305,-0.668c0.932,-0.506 1.833,-1.058 2.699,-1.655c0.59,-0.407 1.163,-0.834 1.72,-1.283c0.546,-0.439 1.075,-0.898 1.589,-1.378c0.517,-0.482 1.017,-0.985 1.499,-1.507c0.549,-0.594 1.074,-1.214 1.577,-1.858c0.773,-0.993 1.49,-2.046 2.148,-3.158c0.387,-0.655 0.753,-1.33 1.098,-2.025c0.385,-0.776 0.743,-1.576 1.073,-2.402l0.487,-1.466c0.277,-0.553 0.476,-1.105 0.684,-1.7c0.162,-0.463 0.33,-0.952 0.546,-1.488c0.44,-1.032 0.794,-2.064 1.165,-3.149c0.247,-0.719 0.5,-1.462 0.793,-2.242c0.276,-0.692 0.475,-1.382 0.683,-2.115c0.162,-0.571 0.329,-1.167 0.542,-1.81l0.492,-1.471c0.23,-0.69 0.46,-1.378 0.664,-2.067c0.231,-0.78 0.43,-1.56 0.561,-2.342c0.227,-0.908 0.454,-1.817 0.68,-2.749c0.263,-1.082 0.526,-2.196 0.79,-3.38l0.246,-0.737c0.244,-0.979 0.489,-2.082 0.703,-3.246c0.215,-1.164 0.399,-2.39 0.522,-3.617c0.119,-0.948 0.238,-1.84 0.357,-2.731c0.126,-0.948 0.252,-1.894 0.377,-2.906l0.245,-1.717c0.062,-0.51 0.12,-1.021 0.175,-1.531c0.076,-0.718 0.144,-1.436 0.205,-2.156c0.076,-0.902 0.14,-1.807 0.192,-2.717c0.063,-1.1 0.107,-2.206 0.135,-3.323c0.021,-0.876 0.031,-1.758 0.031,-2.649c-0.001,-0.777 -0.009,-1.56 -0.026,-2.351c-0.017,-0.767 -0.041,-1.541 -0.073,-2.324c-0.026,-0.619 -0.056,-1.244 -0.092,-1.874c-0.061,-1.097 -0.137,-2.212 -0.228,-3.346c-0.092,-1.133 -0.198,-2.287 -0.319,-3.462Z"/></svg>