<?xml version="1.0" encoding="UTF-8" standalone="no"?><!DOCTYPE svg PUBLIC "-//W3C//DTD SVG 1.1//EN" "http://www.w3.org/Graphics/SVG/1.1/DTD/svg11.dtd"><svg width="100%" height="100%" viewBox="0 0 40 40" version="1.1" xmlns="http://www.w3.org/2000/svg" xmlns:xlink="http://www.w3.org/1999/xlink" xml:space="preserve" xmlns:serif="http://www.serif.com/" style="fill-rule:evenodd;clip-rule:evenodd;stroke-linejoin:round;stroke-miterlimit:2;"><path d="M39.282,25.866l-5.826,-7.829c-0.364,-0.455 -0.455,-1.092 -0.273,-1.638l3.095,-9.285c0.364,-1.002 0.091,-2.003 -0.637,-2.731c-0.728,-0.728 -1.73,-0.91 -2.731,-0.637l-9.285,3.095c-0.546,0.182 -1.183,0.091 -1.638,-0.273l-7.829,-5.826c-0.455,-0.364 -1.001,-0.546 -1.547,-0.546c-0.364,-0 -0.82,0.091 -1.184,0.273c-0.91,0.455 -1.456,1.365 -1.456,2.366l0.091,9.741c-0,0.637 -0.273,1.183 -0.728,1.547l-8.011,5.643c-0.819,0.638 -1.274,1.548 -1.092,2.549c0.182,1.002 0.819,1.821 1.82,2.094l9.467,3.004c0.546,0.182 1.002,0.637 1.184,1.183l2.913,9.285c0.273,1.002 1.092,1.639 2.093,1.821c1.002,0.182 2.003,-0.273 2.549,-1.092l5.644,-8.011c0.364,-0.455 0.91,-0.819 1.547,-0.728l9.74,0.091c1.002,-0 1.912,-0.546 2.367,-1.456c0.455,-0.82 0.365,-1.821 -0.273,-2.64l0,-0Z" style="fill:#0b2540;fill-rule:nonzero;"/></svg>